<svg width="276" height="365" viewBox="0 0 276 365" fill="none" xmlns="http://www.w3.org/2000/svg">
<style>
  path {
   -webkit-animation: pulse 7s infinite;
}

@keyframes pulse {
  50% {
    opacity: 5%;
  }
  100% {
    opacity: 100%;
  }
  0% {
    opacity: 100%;
  }
}
</style>
<path d="M180.765 306.67C179.547 306.611 178.356 307.037 177.452 307.856C176.549 308.675 176.009 309.819 175.949 311.037L174.695 336.701L138.497 296.735C137.675 295.828 136.526 295.285 135.303 295.225C134.081 295.166 132.884 295.594 131.978 296.416C131.071 297.238 130.528 298.387 130.468 299.61C130.408 300.833 130.837 302.029 131.659 302.936L167.905 342.858L142.241 341.604C141.023 341.544 139.832 341.971 138.929 342.79C138.025 343.609 137.485 344.753 137.425 345.971C137.366 347.188 137.792 348.38 138.611 349.283C139.43 350.186 140.574 350.727 141.792 350.786C141.792 350.786 153.071 348.923 160.323 349.283C167.536 349.64 178.521 352.581 178.521 352.581C179.738 352.641 180.93 352.214 181.833 351.395C182.736 350.576 183.277 349.432 183.336 348.215C183.336 348.215 181.335 336.274 181.833 328.613C182.274 321.816 185.131 311.486 185.131 311.486C185.191 310.268 184.764 309.077 183.945 308.174C183.126 307.27 181.982 306.73 180.765 306.67Z" fill="#069B77"/>
<path d="M134.021 298.619C134.021 298.619 104.655 261.732 105.552 231.799C106.108 213.259 105.613 198.196 120.07 186.575C136.646 173.252 161.16 170.367 174.525 186.909C179.703 193.317 182.236 198.299 182.254 206.538C182.284 220.854 172.808 230.832 159.099 234.959C145.223 239.137 135.146 234.129 122.861 226.444C98.5262 211.222 87.3449 176.288 76.0014 149.044C63.6984 119.496 76.0506 66.4385 83.414 53.2133C90.7775 39.9881 90.9296 35.5 102.5 24.5C114.07 13.5 123.5 4.49997 147 4.49997" stroke="url(#paint0_linear)" stroke-width="9"/>
<defs>
<linearGradient id="paint0_linear" x1="167.247" y1="23.6941" x2="84.13" y2="282.602" gradientUnits="userSpaceOnUse">
<stop stop-color="#C7FFF1"/>
<stop offset="0.46875" stop-color="#02FFC2"/>
<stop offset="1" stop-color="#069976"/>
</linearGradient>
</defs>
</svg>
