<svg width="219" height="235" viewBox="0 0 219 235" fill="none" xmlns="http://www.w3.org/2000/svg">
<path d="M128.105 220.664C130 222.047 131.487 221.829 132.552 220.012C133.585 218.713 133.567 217.349 132.515 215.918L132.388 215.437C128.478 203.103 126.203 191.46 125.566 180.5C125.502 178.289 124.371 177.215 122.163 177.287C119.951 177.344 118.878 178.478 118.945 180.692C119.39 188.28 120.63 196.337 122.693 204.873C111.637 192.692 104.796 180.275 102.18 167.614C98.9899 150.815 103.645 135.22 116.149 120.829C119.438 117.06 122.323 113.999 124.789 111.641C126.166 112.992 127.604 114.238 129.108 115.397C142.029 126.22 153.742 131.722 164.225 131.898C168.52 131.973 171.696 131.657 173.733 130.952C177.898 129.864 180.75 127.329 182.269 123.332C184.301 118.009 183.626 113.135 180.254 108.716C177.963 105.201 174.112 102.271 168.711 99.9216C164.027 97.7145 159.037 96.2864 153.724 95.6177C148.418 94.9524 143.998 95.071 140.475 95.9979C134.902 97.62 129.866 99.9624 125.363 103.026C116.881 94.7958 109.518 85.5979 103.263 75.4202C94.3554 60.9726 89.4918 47.9461 88.697 36.3526C87.7254 24.1081 91.8077 15.508 100.956 10.5542C102.916 9.53385 103.378 8.04232 102.36 6.08377C101.331 4.12969 99.841 3.66 97.8893 4.685C86.3464 10.9546 81.1733 21.6262 82.3762 36.7167C83.1113 49.3648 88.215 63.3492 97.6963 78.6724C104.039 89.1657 111.484 98.6923 120.044 107.237C117.582 109.593 114.698 112.651 111.407 116.424C97.522 132.717 92.3195 150.162 95.807 168.765C98.2764 182.154 105.18 195.158 116.522 207.771C107.776 205.086 98.4961 204.945 88.6811 207.339C86.6417 208.035 85.8861 209.43 86.4351 211.52C86.9797 213.598 88.309 214.452 90.4362 214.066C103.897 210.555 116.451 212.75 128.105 220.664ZM133.212 110.474C132.117 109.557 131.124 108.7 130.236 107.918C133.863 105.42 137.858 103.691 142.231 102.728C144.91 101.857 148.55 101.679 153.125 102.188C157.717 102.705 162.043 103.882 166.121 105.732C170.396 107.692 173.455 109.887 175.286 112.324C177.006 114.958 177.275 117.968 176.102 121.351C175.359 123.084 174.028 124.208 172.104 124.707C170.5 125.124 167.808 125.307 164.037 125.271C155.319 125.318 145.046 120.392 133.212 110.474Z" fill="#00FFB2"/>
</svg>
