<svg width="276" height="365" viewBox="0 0 276 365" fill="none" xmlns="http://www.w3.org/2000/svg">
<path d="M179.519 305.112C178.301 305.053 177.109 305.479 176.206 306.298C175.303 307.117 174.763 308.261 174.703 309.479L173.449 335.143L137.251 295.177C136.429 294.27 135.28 293.727 134.057 293.668C132.835 293.608 131.638 294.036 130.731 294.858C129.825 295.681 129.282 296.829 129.222 298.052C129.162 299.275 129.591 300.471 130.413 301.378L166.659 341.3L140.995 340.046C139.777 339.987 138.586 340.413 137.682 341.232C136.779 342.051 136.239 343.195 136.179 344.413C136.12 345.63 136.546 346.822 137.365 347.725C138.184 348.628 139.328 349.169 140.546 349.228C140.546 349.228 151.825 347.366 159.077 347.725C166.29 348.082 177.275 351.023 177.275 351.023C178.492 351.083 179.684 350.656 180.587 349.837C181.49 349.018 182.031 347.874 182.09 346.657C182.09 346.657 180.089 334.716 180.587 327.055C181.028 320.258 183.885 309.928 183.885 309.928C183.945 308.71 183.518 307.519 182.699 306.616C181.88 305.713 180.736 305.172 179.519 305.112Z" fill="#069B77"/>
<path d="M134.021 298.619C134.021 298.619 104.655 261.732 105.552 231.799C106.108 213.259 105.613 198.196 120.07 186.575C136.646 173.252 161.16 170.367 174.525 186.909C179.703 193.317 182.236 198.299 182.254 206.538C182.284 220.854 172.808 230.832 159.099 234.959C145.223 239.137 135.146 234.129 122.861 226.444C98.5262 211.222 87.3449 176.288 76.0014 149.044C63.6984 119.496 76.0506 66.4385 83.414 53.2133C90.7775 39.9881 90.9296 35.5 102.5 24.5C114.07 13.5 123.5 4.49997 147 4.49997" stroke="url(#paint0_linear)" stroke-width="9"/>
<defs>
<linearGradient id="paint0_linear" x1="167.247" y1="23.6941" x2="84.13" y2="282.602" gradientUnits="userSpaceOnUse">
<stop stop-color="#C7FFF1"/>
<stop offset="0.46875" stop-color="#02FFC2"/>
<stop offset="1" stop-color="#069976"/>
</linearGradient>
</defs>
</svg>
