<svg width="90" height="46" viewBox="0 0 89 45" fill="none" xmlns="http://www.w3.org/2000/svg">
<ellipse cx="75.0499" cy="8.35052" rx="1.24693" ry="1.23711" fill="#373535"/>
<path d="M68.8564 9.05884C68.3224 9.17648 67.462 9.58825 66.9874 9.94119C66.305 10.4412 66.0876 10.3608 65.5811 10.1675C64.8342 9.81961 62.7154 10.0294 61.944 10.7059C61.6177 11.0294 61.143 11.6765 60.9354 12.2059C60.4904 13.2353 60.3717 16 60.7574 16.2353C60.876 16.2941 61.7067 15.9118 62.567 15.3824C63.457 14.8235 64.2877 14.4412 64.436 14.5294C64.5547 14.6177 64.6734 15.4118 64.6734 16.2941C64.6734 18.6471 65.1777 18.6471 67.6104 16.2941C68.7377 15.2353 69.865 14.353 70.132 14.353C70.3694 14.353 70.8144 14.6765 71.0814 15.0882C71.3484 15.5 71.7934 15.8235 72.0604 15.8235C72.3274 15.8235 73.6624 14.7059 75.027 13.353L77.4894 10.8824L76.7477 10.3824C76.273 10.0882 75.5314 9.91178 74.849 9.9706C74.226 10 73.3064 9.82354 72.8317 9.58825C71.6154 8.9706 70.1024 8.76472 68.8564 9.05884ZM75.6501 11.9118C76.2434 12.2059 75.5314 11.3824 76.2434 11.3235C76.9554 11.2941 76.0357 10.7059 76.1247 10.853C76.3027 11.1765 72.5647 13.353 72.0604 13.353C71.912 13.353 71.7637 13.5882 71.6451 13.353C71.6451 12.1765 71.0814 14 70.755 13.8235C69.954 13.4118 69.4497 13.353 67.3434 15.3824C66.3941 16.2941 66.6314 14.5882 66.6017 14.4412C66.5127 13.1471 65.2074 14.7941 64.9404 14.4412C64.5547 14.0294 63.012 13.9118 62.834 14.3235C62.8044 14.4412 65.1902 14.2647 64.8342 14.353C64.2112 14.5588 68.0851 16.5588 68.0851 15.3824C68.1147 14.5 69.0641 14.8236 69.5684 14.2059C70.2507 13.3824 67.8774 13.853 69.7167 13.9118C71.2001 13.9412 72.8614 14.5294 73.5734 14.1177C74.7304 13.4118 74.3151 11.2059 75.6501 11.9118Z" fill="#373535"/>
<path d="M77.1334 22.8823C77.1334 28.4706 77.0147 28.2353 79.388 28.2353C81.9097 28.2353 83.0667 27.0882 83.0667 24.5294C83.0667 23.4706 82.7654 22.616 82.2978 22.0361C81.9804 21.6425 81.702 21.4706 81.168 21.3235C80.5154 21.147 79.922 21.0588 79.388 21.3235L78.6167 21.7353V19.9706C78.6167 19.0294 78.5445 18.5832 78.479 18.2087C78.4135 17.8343 77.7387 17.8221 77.5049 17.9768C77.0165 18.2087 77.1334 18.4412 77.1334 22.8823ZM81.168 23.0882C81.524 23.6176 81.613 24.2059 81.4944 25.0588C81.3164 26.4412 80.6934 27.0588 79.4474 27.0588C78.6167 27.0588 78.6167 27.0294 78.6167 25.2647C78.6167 24.2941 78.765 23.2353 78.9134 22.9117C79.3584 22.0882 80.5747 22.2059 81.168 23.0882Z" fill="#373535"/>
<path d="M60.8167 20.2941C60.8167 20.9706 60.6981 21.1765 60.2234 21.1765C59.8377 21.1765 59.4243 21.3831 59.4243 21.7655C59.4243 22.1478 60.0128 22.3067 60.3985 22.3067C60.9325 22.3067 60.8167 22.5588 60.8167 24.7353C60.8167 27.7941 61.0541 28.2353 62.7451 28.2353C63.9317 28.2353 64.4121 28.1434 64.4121 27.5258C64.4121 26.9964 63.7537 26.8778 63.1011 26.9072C62.2704 26.9072 62.4484 26.9118 62.3594 24.6176L62.2704 22.3529H63.1901C63.9317 22.3529 64.1114 22.0294 64.0224 21.6176C63.9631 21.3235 63.6054 21.2941 63.1011 21.2353C62.4781 21.1471 62.3001 20.9706 62.3001 20.4412C62.3001 19.8235 62.1236 19.5232 61.4116 19.5232C61.2633 19.5232 60.8167 19.7941 60.8167 20.2941ZM61.1134 20.8823C60.6684 21.3823 60.9651 22.2647 61.2321 21.6176C61.3804 21.2059 61.4991 21.1765 61.8551 21.4706C62.1814 21.7353 61.4101 20.5882 61.1134 20.8823Z" fill="#373535"/>
<path d="M56.8827 33.4876C56.8827 33.9018 56.8104 34.0279 56.5211 34.0279C56.2861 34.0279 56.0342 34.1544 56.0342 34.3886C56.0342 34.6227 56.3928 34.72 56.6278 34.72C56.9532 34.72 56.8827 34.8744 56.8827 36.2072C56.8827 38.0804 57.0273 38.3505 58.0578 38.3505C58.7809 38.3505 59.0736 38.2943 59.0736 37.916C59.0736 37.5918 58.6724 37.5192 58.2747 37.5372C57.7685 37.5372 57.877 37.54 57.8228 36.1352L57.7685 34.7483H58.329C58.7809 34.7483 58.8904 34.5502 58.8362 34.2981C58.8 34.118 58.5821 34.0999 58.2747 34.0639C57.8951 34.0099 57.7866 33.9018 57.7866 33.5776C57.7866 33.1994 57.6791 33.0155 57.2452 33.0155C57.1548 33.0155 56.8827 33.1814 56.8827 33.4876ZM57.0635 33.8478C56.7923 34.154 56.9731 34.6943 57.1358 34.2981C57.2262 34.0459 57.2985 34.0279 57.5154 34.208C57.7143 34.3701 57.2443 33.6677 57.0635 33.8478Z" fill="#373535"/>
<path d="M7.96277 21.2164C7.48811 21.4811 7.37827 21.6121 7.14447 21.4962C6.91067 21.3802 6.73506 21.2164 6.40873 21.2164C5.87473 21.2164 5.84506 21.4517 5.84506 25.7753V30.3341H6.76473C7.45621 30.3341 7.35806 30.4266 7.35806 29.3828V27.7964C7.35806 27.7964 7.56573 27.9523 8.2184 27.9523C8.87106 27.9523 9.87973 27.7379 10.2061 27.5908C11.4698 26.6766 11.6511 24.085 10.9632 22.3853C10.6515 21.8828 10.2892 21.518 9.75524 21.3415C8.60656 21.0892 8.85901 21.0322 7.96277 21.2164ZM9.87973 23.1282C10.2357 23.6576 10.0957 23.9991 10.1704 25.0515C9.99237 26.4339 9.31606 27.1576 8.2184 27.04C7.53606 26.9517 7.5064 26.8635 7.53606 24.9811C7.56573 23.8929 7.65473 22.8635 7.7734 22.687C8.1294 22.1282 9.3754 22.3635 9.87973 23.1282ZM11.0961 25.3929C11.0071 25.6282 11.2225 25.491 11.2225 25.1675C11.1928 24.844 10.9774 24.7164 11.0664 24.8341C11.1554 24.9223 11.1851 25.187 11.0961 25.3929ZM6.4384 27.687C6.5274 27.8341 7.20973 27.687 7.0614 27.687C6.8834 27.687 6.73506 27.54 6.73506 27.3929C6.73506 27.2164 6.1714 27.04 6.4384 27.0988C6.5274 27.0988 6.3494 27.5106 6.4384 27.687Z" fill="#373535"/>
<path d="M14.3295 21.1645C12.1045 21.7233 11.6001 25.8704 13.5285 27.5174C14.1811 28.0763 14.5965 28.1645 15.9908 28.1057C17.5335 28.0174 17.6521 27.9586 17.6521 27.2821C17.6521 26.7821 17.5038 26.5763 17.2071 26.6645C15.2195 27.1939 13.9438 26.7233 13.9438 25.4586C13.9438 24.988 14.2108 24.9292 16.0501 24.9292L16.8731 24.8261L17.5355 24.6328L17.7693 24.1939V23.6277C17.4576 21.54 16.3171 20.6645 14.3295 21.1645ZM16.3171 22.841C16.8511 23.8116 16.7325 23.7527 15.2788 23.7527C14.3888 23.7527 13.8726 23.8085 13.8726 23.5438C13.8726 22.4556 15.7831 21.8704 16.3171 22.841ZM12.9055 24.1939C12.9945 24.4586 12.4901 25.0763 12.9055 25.2233C12.7275 25.6645 13.0835 25.3998 13.0835 24.5469C13.0538 23.3704 12.6978 23.341 12.9055 24.1939Z" fill="#373535"/>
<path d="M25.6918 21.3235C24.9204 21.4706 24.5051 21.4706 24.5051 21.4706C24.5051 21.4706 24.2084 21.0294 23.8227 21.1765C23.4371 21.3235 23.4371 22 23.4371 24.7059V28.2353H24.1788C24.9204 28.2353 24.9204 28.2059 24.9204 25.6176C24.9204 22.7941 25.1875 22.2353 26.4632 22.4118C27.1158 22.5 27.1455 22.6176 27.2345 25.3529C27.3235 28.2059 27.3235 28.2353 28.0355 28.2353C28.7772 28.2353 28.7772 28.2059 28.7772 25.6176C28.7772 22.7941 29.0442 22.2353 30.3199 22.4118C30.9726 22.5 31.0023 22.6176 31.0913 25.3529C31.1803 28.2059 31.1803 28.2353 31.8923 28.2353C32.634 28.2353 32.634 28.2353 32.634 25.2059C32.634 22.5588 32.545 22.0882 32.0703 21.6471C31.4176 21.0588 29.5782 20.9412 28.9552 21.4412C28.6585 21.6765 28.3322 21.6471 27.7092 21.3235C26.6148 21.0309 26.4632 21.1765 25.6918 21.3235ZM27.2938 21.4706C27.2048 21.5588 27.8575 22.7353 27.7685 22.4412C27.5905 22.0294 27.6202 22 27.9169 22.2647C28.1245 22.4706 27.3828 21.3823 27.2938 21.4706Z" fill="#373535"/>
<path d="M42.8093 21.3235C42.2456 21.5588 41.771 21.6177 41.682 21.4412C41.5633 21.2941 41.237 21.1765 40.9106 21.1765C40.3766 21.1765 40.347 21.4118 40.347 24.7059V28.2353H41.0886C41.8303 28.2353 41.8116 28.5691 41.8116 26.1727C41.8116 23.6139 42.305 22.353 43.4323 22.353C44.619 22.353 44.8563 22.9706 44.7376 25.7059L44.6486 28.2353H45.4793H46.2803V25.5883C46.2803 22.5588 45.954 21.6177 44.708 21.1765C44.2333 21.0294 43.6727 21.1083 43.643 21.1083C43.6134 21.1377 43.3136 21.0883 42.8093 21.3235Z" fill="#373535"/>
<path d="M51.1901 34.2306C50.8717 34.3626 50.6036 34.3956 50.5533 34.2966C50.4863 34.2141 50.302 34.148 50.1177 34.148C49.816 34.148 49.7993 34.2801 49.7993 36.1288V38.1096H50.2182C50.6371 38.1096 50.6266 38.297 50.6266 36.952C50.6266 35.516 50.9052 34.8083 51.542 34.8083C52.2123 34.8083 52.3463 35.1549 52.2793 36.6901L52.229 38.1096H52.6982H53.1507V36.624C53.1507 34.9239 52.9663 34.3956 52.2625 34.148C51.9944 34.0655 51.6778 34.1098 51.661 34.1098C51.6443 34.1263 51.475 34.0985 51.1901 34.2306Z" fill="#373535"/>
<path d="M49.0685 21.2353C46.6954 21.8529 46.1911 26.0294 48.2676 27.6471C49.3355 28.4706 51.768 28.4706 52.2129 27.6471C52.6579 26.8529 52.3316 26.3824 51.6196 26.7647C50.3441 27.4412 49.0685 26.9118 48.5642 25.5C48.3863 25.0588 48.7562 25.0129 50.7734 25.0129C50.7734 25.0129 52.1371 25.1289 52.3319 24.7036C52.5092 24.3166 52.4098 23.4412 52.4098 23.4412C52.0538 21.2941 50.9374 20.7353 49.0685 21.2353ZM51.056 23.1471C51.2933 23.7941 51.234 23.8235 49.9881 23.8235C49.0982 23.8235 48.6532 23.7059 48.6532 23.4412C48.6532 22.2353 50.6407 22.0294 51.056 23.1471ZM48.1489 24.2647C48.2676 24.5 47.7633 23.0588 47.615 23.1471C47.437 23.2647 47.7633 24.7647 47.7633 24.4412C47.7633 23.7059 47.9413 23.6471 48.1489 24.2647Z" fill="#373535"/>
<path d="M55.6056 21.1765C55.0419 21.4118 54.8241 21.6176 54.7351 21.4412C54.6164 21.2941 54.2901 21.1765 53.9637 21.1765C53.4297 21.1765 53.4001 21.4118 53.4001 24.7059V28.2353H54.1417C54.8834 28.2353 54.8834 28.2059 54.8834 25.9412C54.8834 23.3823 55.3581 22.3529 56.4854 22.3529C57.6721 22.3529 57.9094 22.9706 57.7907 25.7059L57.7017 28.2353H58.5324H59.3334V25.5882C59.3334 22.5588 59.0071 21.6176 57.7611 21.1765C57.2864 21.0294 57.0084 20.9536 56.8525 20.9536C56.6187 20.9536 56.1099 20.9412 55.6056 21.1765Z" fill="#373535"/>
<path d="M73.5734 21.0882C72.624 21.4412 72.09 22.1765 72.09 23.1176C72.09 24.1765 72.7427 24.7941 74.226 25.1471C75.1457 25.3823 75.5017 26.0882 74.9974 26.6765C74.7304 27 74.2557 27.0882 73.3657 26.9706C72.179 26.8529 72.09 26.8823 72.09 27.5294C72.09 28.1765 72.2087 28.2353 73.6624 28.2353C75.8577 28.2353 76.54 27.7059 76.54 26C76.54 24.6765 76.54 24.6471 75.0567 24.0294C74.0184 23.5882 73.5734 23.2353 73.5734 22.8529C73.5734 22.3823 73.7514 22.2941 74.8787 22.4118C75.9467 22.4706 76.2434 22.4118 76.362 22C76.4214 21.7059 76.3917 21.4118 76.273 21.3529C75.8874 21.0882 73.9887 20.9118 73.5734 21.0882Z" fill="#373535"/>
<path d="M18.6899 24.7059V28.2353H19.5205H20.3215L20.2325 26.2647C20.1732 25.1471 20.2622 23.8823 20.4402 23.4118C20.7369 22.6765 20.8852 22.5882 21.8049 22.7059C22.7564 22.7059 22.9902 22.7621 22.9902 21.9974C22.9902 21.2915 22.7245 21.1765 21.9829 21.1765C21.5082 21.1765 20.6912 21.5335 20.6912 21.5335H20.0677C20.0677 21.5335 19.5799 21.1765 19.2832 21.1765C18.7195 21.1765 18.6899 21.4118 18.6899 24.7059ZM19.7875 23C19.6985 23.2353 19.6095 23.1471 19.6095 22.8235C19.5799 22.5 19.3425 23.7059 19.4315 23.8235C19.5205 23.9118 19.8765 22.7941 19.7875 23Z" fill="#373535"/>
<path d="M35.1254 21.7353C33.4047 22.7941 33.0191 26.0294 34.4431 27.5294C35.1847 28.2941 36.9944 28.5 37.6174 27.8824C37.8844 27.6176 37.9734 27.6176 37.9734 27.8824C37.9734 28.0882 38.2997 28.2353 38.7151 28.2353H39.4567V24.8824C39.4567 21.1471 39.4864 21.1765 37.2911 21.1765C36.5791 21.1765 35.6297 21.4118 35.1254 21.7353ZM37.9734 24.3824C37.9734 26.2353 37.5284 27.0588 36.5197 27.0588C34.9474 27.0588 34.5617 23.8235 36.0154 22.8824C36.1934 22.7647 36.6977 22.6471 37.1724 22.6471C37.9437 22.6471 37.9734 22.6765 37.9734 24.3824Z" fill="#373535"/>
<path d="M21.9383 32.8995C21.2856 33.4289 21.2414 34 21.2117 35.0294C21.1524 37.2647 21.9237 38.5 23.3477 38.5294C24.386 38.5294 24.8861 38.2732 25.365 37.3235C25.666 36.7268 24.9388 36.3402 24.564 36.853C23.2884 38.3119 22.25 36.9974 22.25 35.4412C22.25 33.2059 24.0738 33.0776 24.5881 34.098C24.7829 34.4845 25.3989 34.3345 25.3674 33.9433C25.2895 32.9768 24.0894 32.353 23.2884 32.353C23.051 32.353 22.3833 32.5171 21.9383 32.8995Z" fill="#373535"/>
<path d="M54.7944 32.5294C54.379 32.9411 54.5867 33.5588 55.1207 33.4706C55.3877 33.4117 55.625 33.1764 55.625 32.9706C55.625 32.5 55.091 32.2353 54.7944 32.5294Z" fill="#373535"/>
<path d="M65.9491 32.8235C65.8897 33 65.8601 34.3235 65.9194 35.7647C65.9787 37.8529 66.0823 38.5825 66.4383 38.5825C66.7647 38.5825 66.8984 38.0588 66.8984 37.2059V36.1176H68.0257C68.8564 36.2059 69.1234 36.1176 69.1234 35.7647C69.1234 35.4117 68.8267 35.2941 67.9367 35.2941C66.7797 35.2941 66.8984 35.2941 66.789 34.3299C66.878 33.4181 66.9577 33.3823 68.2334 33.3823C69.1531 33.3823 69.205 33.1176 69.205 32.8235C69.205 32.3235 66.1567 32.3235 65.9491 32.8235Z" fill="#373535"/>
<path d="M82.2978 32.5515C82.2088 32.728 82.1419 33.0155 82.2198 33.7113C82.3082 34.5007 81.88 34.4072 81.8302 34.4072C80.2715 33.518 78.32 35.9706 79.6847 37.8823C80.0704 38.4118 80.367 38.5294 81.524 38.4412L82.9184 38.3529V35.4412C82.9184 33.5 83.0417 32.4557 82.8043 32.3969C82.6263 32.3381 82.4164 32.3751 82.2978 32.5515ZM81.88 36.3235C81.88 37.5294 81.8207 37.6471 81.168 37.6471C80.3374 37.6471 79.9517 36.8235 80.2187 35.7059C80.367 35.2059 80.6044 35 81.1384 35C81.8207 35 81.88 35.1176 81.88 36.3235Z" fill="#373535"/>
<path d="M26.9962 34.7059C25.7204 35.9706 26.6105 38.5294 28.2719 38.5294C29.3103 38.5294 29.963 37.6471 29.963 36.2647C29.963 34.3235 28.2719 33.4412 26.9962 34.7059ZM28.9246 36.3235C28.9246 37.3824 28.8653 37.5 28.1829 37.5C27.5895 37.5 27.4115 37.3235 27.3522 36.6765C27.2038 35.4412 27.5005 34.9412 28.2422 35.0588C28.8356 35.1471 28.9246 35.3235 28.9246 36.3235Z" fill="#373535"/>
<path d="M31.4763 34.4118C31.2766 34.797 31.0906 35.1765 31.0906 36.3235C31.0174 38.5294 31.129 38.4278 31.485 38.4278C31.7817 38.4278 31.9806 38.5294 31.9806 36.6765C32.0696 35.1177 32.1289 35 32.7816 35C33.4936 35 33.5233 35.0882 33.5233 36.7647C33.5233 38.1471 33.6123 38.5294 33.9683 38.5294C34.2946 38.5294 34.4132 38.1765 34.4132 37.1177C34.4132 35.5 34.7099 34.9118 35.4812 35.0588C35.9559 35.1471 36.0746 35.4706 36.1339 36.8529C36.2015 38.4278 36.332 38.3824 36.6286 38.3824C37.408 38.4278 37.0183 35.9536 36.7866 34.6765C36.4306 34.0588 35.5796 33.9753 34.7193 34.4459C34.2906 34.6803 33.9789 34.8325 33.5233 34.4118C33.3483 34.2502 32.1666 34.0252 31.4763 34.4118Z" fill="#373535"/>
<path d="M38.5164 34.4424C38.3168 34.8276 38.1308 35.2071 38.1308 36.3542C38.0576 38.5601 38.1692 38.4585 38.5252 38.4585C38.8219 38.4585 39.0208 38.5601 39.0208 36.7071C39.1098 35.1483 39.1691 35.0306 39.8218 35.0306C40.5338 35.0306 40.5634 35.1189 40.5634 36.7954C40.5634 38.1777 40.6524 38.5601 41.0084 38.5601C41.3348 38.5601 41.4534 38.2071 41.4534 37.1483C41.4534 35.5306 41.7501 34.9424 42.5214 35.0895C42.9961 35.1777 43.1148 35.5012 43.1741 36.8836C43.2417 38.4585 43.3722 38.413 43.6688 38.413C44.4482 38.4585 44.0585 35.9843 43.8268 34.7071C43.4708 34.0895 42.6198 34.0059 41.7595 34.4765C41.3308 34.711 41.0191 34.8631 40.5634 34.4424C40.3884 34.2808 39.2068 34.0558 38.5164 34.4424Z" fill="#373535"/>
<path d="M45.3307 34.2647C45.0341 34.5588 45.3604 37.7059 45.7163 38.1471C45.924 38.3823 46.9029 38.332 47.7632 38.2732C48.6235 38.2144 48.6303 36.0756 48.6303 35.8823C48.6649 37.6668 48.6303 35.689 48.6303 35.8823C48.5957 34.0979 48.4594 34.1753 48.1627 34.1753C47.7632 34.1366 47.812 34.1753 47.7632 35.8823C47.7235 37.2691 47.5259 37.5 46.9623 37.5882C46.369 37.6765 46.2256 37.6671 46.1366 36.1082C46.0476 34.5788 46.1366 34.0593 45.3307 34.2647Z" fill="#373535"/>
<path d="M76.1154 34.4626C75.7971 34.5946 75.529 34.6276 75.4787 34.5286C75.4117 34.4461 75.2274 34.38 75.0431 34.38C74.7415 34.38 74.7247 34.5121 74.7247 36.3608V38.3416H75.1436C75.5625 38.3416 75.5519 38.529 75.5519 37.184C75.5519 35.748 75.8306 35.0403 76.4673 35.0403C77.1375 35.0403 77.2716 35.3869 77.2045 36.9221L77.1543 38.3416H77.6234H78.0758V36.856C78.0758 35.1559 77.8915 34.6276 77.1878 34.38C76.9197 34.2975 76.6031 34.3418 76.5863 34.3418C76.5696 34.3583 76.4003 34.3305 76.1154 34.4626Z" fill="#373535"/>
<path d="M54.5867 36.3235C54.5867 38.0882 54.6757 38.5294 55.0317 38.5294C55.3877 38.5294 55.4767 38.0882 55.4767 36.3235C55.4767 34.5588 55.3877 34.1177 55.0317 34.1177C54.6757 34.1177 54.5867 34.5588 54.5867 36.3235Z" fill="#373535"/>
<path d="M59.3464 34.4845C59.3464 34.5728 59.6191 35.3737 60.1647 36.1856C60.8095 37.1452 60.944 37.3067 60.8661 37.8479C60.7881 38.3119 60.8661 38.8144 60.1647 39.2397C59.5175 39.2397 59.1126 39.4885 59.1126 39.6649C59.1126 39.8708 59.0736 40 59.7191 40C59.8377 40 60.1937 40 60.4904 40C60.9057 40 61.2914 39.4706 61.944 37.8529C63.19 34.9412 63.368 34.1176 62.8044 34.1176C62.567 34.1176 62.3968 34.1887 62.3078 34.6005C62.2188 34.9829 61.9255 35.7955 61.8402 35.9536C61.755 36.1117 61.5818 36.4826 61.3726 36.3789C61.1388 36.2629 60.905 35.8763 60.905 35.8763C60.1257 34.2912 59.9861 34.1176 59.7487 34.1176C59.5114 34.1176 59.3464 34.4257 59.3464 34.4845Z" fill="#373535"/>
<path d="M70.2559 34.4272C69.9592 34.7214 70.2855 37.8684 70.6415 38.3096C70.8492 38.5449 71.8282 38.4945 72.6885 38.4357C73.5489 38.3769 73.5557 36.2382 73.5557 36.0449C73.5903 37.8293 73.5557 35.8516 73.5557 36.0449C73.521 34.2605 73.3847 34.3378 73.0881 34.3378C72.6885 34.2991 72.7374 34.3378 72.6885 36.0449C72.6488 37.4317 72.4512 37.6625 71.8875 37.7508C71.2942 37.839 71.1508 37.8296 71.0618 36.2708C70.9728 34.7414 71.0618 34.2218 70.2559 34.4272Z" fill="#373535"/>
<path d="M68.1814 20.2555C68.1814 20.9319 68.0627 21.1378 67.588 21.1378C67.2024 21.1378 66.7889 21.3445 66.7889 21.7268C66.7889 22.1092 67.3774 22.2681 67.7631 22.2681C68.2971 22.2681 68.1814 22.5202 68.1814 24.6967C68.1814 27.7555 68.4187 28.1967 70.1097 28.1967C71.2964 28.1967 71.7767 28.1048 71.7767 27.4871C71.7767 26.9577 71.1184 26.8392 70.4657 26.8686C69.635 26.8686 69.813 26.8731 69.724 24.579L69.635 22.3143H70.5547C71.2964 22.3143 71.476 21.9908 71.387 21.579C71.3277 21.2849 70.97 21.2555 70.4657 21.1967C69.8427 21.1084 69.6647 20.9319 69.6647 20.4025C69.6647 19.7849 69.4883 19.4846 68.7762 19.4846C68.6279 19.4846 68.1814 19.7555 68.1814 20.2555ZM68.478 20.8437C68.033 21.3437 68.3297 22.2261 68.5967 21.579C68.745 21.1672 68.8637 21.1378 69.2197 21.4319C69.546 21.6967 68.7747 20.5496 68.478 20.8437Z" fill="#373535"/>
<ellipse cx="64.0613" cy="8.11858" rx="1.24694" ry="1.23711" fill="#373535"/>
<ellipse cx="69.7115" cy="6.68813" rx="1.67557" ry="1.66237" fill="#373535"/>
<ellipse cx="69.7115" cy="6.68813" rx="1.67557" ry="1.66237" fill="#373535"/>
</svg>
