<svg width="330" height="108" viewBox="0 0 370 148" fill="none" xmlns="http://www.w3.org/2000/svg">
<rect x="177.091" y="85.3643" width="16.4366" height="60.4441" rx="8.21828" fill="#E7B6EF"/>
<rect width="16.4366" height="60.4441" rx="8.21828" transform="matrix(-1 0 0 1 192.121 85.3643)" fill="#E7B6EF"/>
<rect x="266.197" y="90.666" width="16.4366" height="60.4441" rx="8.21828" transform="rotate(39.2039 266.197 90.666)" fill="#B6D7EF"/>
<rect width="16.4366" height="60.4441" rx="8.21828" transform="matrix(-0.774901 0.632082 0.632082 0.774901 103.015 90.666)" fill="#B6D7EF"/>
<rect x="255.979" y="13.2549" width="16.4366" height="60.4441" rx="8.21828" transform="rotate(48.8079 255.979 13.2549)" fill="#E7B6EF"/>
<rect width="16.4366" height="60.4441" rx="8.21828" transform="matrix(-0.658586 0.752506 0.752506 0.658586 113.233 13.2549)" fill="#E7B6EF"/>
<rect x="332.973" y="89.748" width="16.4366" height="60.4441" rx="8.21828" transform="rotate(-19.3429 332.973 89.748)" fill="#B6D7EF"/>
<rect width="16.4366" height="60.4441" rx="8.21828" transform="matrix(-0.943553 -0.331222 -0.331222 0.943553 36.2388 89.748)" fill="#B6D7EF"/>
<circle cx="53.2866" cy="130.697" r="8.21828" transform="rotate(180 53.2866 130.697)" fill="#E7B6EF"/>
<circle cx="200.155" cy="70.7837" r="8.21828" fill="#E7B6EF"/>
<circle r="8.21828" transform="matrix(-1 0 0 1 169.057 70.7837)" fill="#E7B6EF"/>
<circle cx="315.741" cy="93.5825" r="8.21828" transform="rotate(-180 315.741 93.5825)" fill="#B6D7EF"/>
<circle r="8.21828" transform="matrix(1 0 0 -1 53.4707 93.5825)" fill="#B6D7EF"/>
<circle cx="86.69" cy="130.697" r="8.21828" fill="white"/>
<circle cx="290.291" cy="93.5825" r="8.21828" fill="#B6D7EF"/>
<circle r="8.21828" transform="matrix(-1 0 0 1 78.9209 93.5825)" fill="#B6D7EF"/>
<circle cx="188.491" cy="8.21824" r="8.21828" transform="rotate(180 188.491 8.21824)" fill="#E7B6EF"/>
<circle cx="281.808" cy="13.52" r="8.21828" fill="#E7B6EF"/>
<circle r="8.21828" transform="matrix(-1 0 0 1 87.4043 13.52)" fill="#E7B6EF"/>
<circle cx="42.1518" cy="31.5473" r="8.21828" transform="rotate(-180 42.1518 31.5473)" fill="#B6D7EF"/>
<circle cx="323.164" cy="130.697" r="8.21828" fill="white"/>
<circle cx="158.269" cy="21.4732" r="8.21828" fill="#B6D7EF"/>
<circle cx="282.338" cy="130.697" r="8.21828" fill="#E7B6EF"/>
<circle cx="318.922" cy="33.6684" r="8.21828" transform="rotate(-180 318.922 33.6684)" fill="#B6D7EF"/>
<circle cx="192.202" cy="39.5005" r="8.21828" fill="white"/>
<circle cx="218.712" cy="18.2925" r="8.21828" fill="#B6D7EF"/>
<rect x="307.523" y="69.9199" width="16.4366" height="60.4441" rx="8.21828" transform="rotate(-84.7792 307.523 69.9199)" fill="white"/>
<rect x="269.151" y="56.2031" width="16.4366" height="60.4441" rx="8.21828" transform="rotate(52.6549 269.151 56.2031)" fill="white"/>
<circle cx="290.291" cy="61.77" r="8.21828" fill="white"/>
<circle cx="216.592" cy="114.261" r="8.21828" fill="white"/>
<circle cx="213.598" cy="137.59" r="8.21828" fill="white"/>
<rect width="16.4366" height="60.4441" rx="8.21828" transform="matrix(-0.0909941 -0.995851 -0.995851 0.0909941 61.689 69.9199)" fill="white"/>
<rect width="16.4366" height="60.4441" rx="8.21828" transform="matrix(-0.606614 0.794997 0.794997 0.606614 100.061 56.2031)" fill="white"/>
<circle r="8.21828" transform="matrix(-1 0 0 1 78.9209 61.77)" fill="white"/>
<circle r="8.21828" transform="matrix(-1 0 0 1 152.62 114.261)" fill="white"/>
<circle r="8.21828" transform="matrix(-1 0 0 1 155.613 137.59)" fill="white"/>
</svg>
