<svg width="320" height="223" viewBox="0 0 320 223" fill="none" xmlns="http://www.w3.org/2000/svg">
<path d="M92.5459 49.5316H298.493C310.371 49.5316 320 59.1606 320 71.0387C320 82.9168 310.371 92.5458 298.493 92.5458H92.5459V49.5316Z" fill="#F5C387"/>
<path d="M48.228 60.8737L130.125 11.1602C140.278 4.9966 153.506 8.23123 159.67 18.385C165.833 28.5387 162.599 41.7665 152.445 47.9301L70.5484 97.6437L48.228 60.8737Z" fill="#F5C387"/>
<ellipse cx="96.7821" cy="135.886" rx="96.7821" ry="86.3544" fill="#F5C387"/>
<path d="M101.018 113.727C101.018 102.029 110.501 92.5458 122.2 92.5458H223.218C234.916 92.5458 244.399 102.029 244.399 113.727C244.399 125.425 234.916 134.908 223.218 134.908H122.2C110.501 134.908 101.018 125.425 101.018 113.727Z" fill="#F5C387"/>
<path d="M92.5459 156.415C92.5459 144.537 102.175 134.908 114.053 134.908H214.42C226.298 134.908 235.927 144.537 235.927 156.415C235.927 168.294 226.298 177.923 214.42 177.923H114.053C102.175 177.923 92.5459 168.294 92.5459 156.415Z" fill="#F5C387"/>
<path d="M70.387 200.081C70.387 187.843 80.3078 177.923 92.5458 177.923H191.609C203.847 177.923 213.768 187.843 213.768 200.081C213.768 212.319 203.847 222.24 191.609 222.24H92.5458C80.3078 222.24 70.387 212.319 70.387 200.081Z" fill="#F5C387"/>
<circle cx="123.503" cy="113.727" r="13.3605" fill="#FFF8BB"/>
<path fill-rule="evenodd" clip-rule="evenodd" d="M127.847 28.1321C134.152 24.2999 136.158 16.0816 132.325 9.77596L109.491 23.6534C113.323 29.9591 121.541 31.9642 127.847 28.1321Z" fill="#FFF8BB"/>
<circle cx="114.379" cy="156.09" r="13.3605" fill="#FFF8BB"/>
<circle cx="96.7821" cy="199.756" r="13.3605" fill="#FFF8BB"/>
</svg>
