<svg width="2307" height="3394" viewBox="0 0 2307 3394" fill="none" xmlns="http://www.w3.org/2000/svg">
    <path d="M1861.84 263.917L1563.18 787.781L1207.96 598.86L1861.84 263.917Z" fill="#FE0000"/>
<path d="M1264.43 1308.78L1561.71 780.111L1917.91 973.064L1264.43 1308.78Z" fill="#FE0000"/>
<path d="M1861.54 262.528L1560.97 783.382L1917.56 975.364L1861.54 262.528Z" fill="#FEC600"/>
<path d="M1264.73 1310.17L1558.87 783.558L1207.86 597.404L1264.73 1310.17Z" fill="#FEC600"/>
<path d="M1267.37 1946.16C1089.54 1944.17 946.998 1798.41 948.986 1620.58C950.974 1442.76 1096.74 1300.21 1274.57 1302.2" stroke="black" stroke-width="20"/>
<path d="M962.583 1623.46L840.458 1685.79L843.264 1555.92L962.583 1623.46Z" fill="black"/>
<path d="M928.447 1622.96L1048.9 1557.45L1049.49 1687.36L928.447 1622.96Z" fill="black"/>
<path d="M1266.77 1947.08C1444.52 1952.83 1583.94 2101.58 1578.19 2279.32C1572.44 2457.06 1423.69 2596.49 1245.95 2590.74" stroke="black" stroke-width="20"/>
<path d="M1591.58 2275.46L1469.46 2337.79L1472.26 2207.92L1591.58 2275.46Z" fill="black"/>
<path d="M1557.45 2274.96L1677.9 2209.45L1678.49 2339.36L1557.45 2274.96Z" fill="black"/>
<path d="M1262.22 3233.86C1084.45 3238.6 936.498 3098.33 931.761 2920.55C927.024 2742.78 1067.3 2594.83 1245.07 2590.09" stroke="black" stroke-width="20"/>
<path d="M945.583 2917.46L823.458 2979.79L826.264 2849.92L945.583 2917.46Z" fill="black"/>
<path d="M911.447 2916.96L1031.9 2851.45L1032.49 2981.36L911.447 2916.96Z" fill="black"/>
</svg>
