<svg width="1010" height="1010" viewBox="0 0 1010 709" fill="none" xmlns="http://www.w3.org/2000/svg">
    <style>
        #lockbg, #lockq {
            animation-name: unlock;
            animation-duration: 6000ms;
            animation-iteration-count: infinite;
        }
        @keyframes unlock {
            0%{transform: translate(0,0);}
            50%{transform: translate(0px,60px);}
            100%{transform: translate(0,0);}
        }
    </style>
    <path fill-rule="evenodd" clip-rule="evenodd" d="M397.391 210.382C357.832 183.109 303.655 193.068 276.382 232.627C249.109 272.185 259.069 326.363 298.627 353.636L397.391 210.382Z" fill="#C4C4C4" />
    <circle cx="348.137" cy="282.704" r="54.5" transform="rotate(-55.4165 348.137 282.704)" fill="#FF9A6F" />
    <rect x="298.627" y="353.636" width="32" height="118" transform="rotate(-55.4165 298.627 353.636)" fill="#C4C4C4" />
    <rect x="378.66" y="237.551" width="33" height="118" transform="rotate(-55.4165 378.66 237.551)" fill="#C4C4C4" />
    <path fill-rule="evenodd" clip-rule="evenodd" d="M395.776 420.613C435.335 447.886 489.513 437.926 516.785 398.368C544.058 358.809 534.099 304.632 494.54 277.359L395.776 420.613Z" fill="#C4C4C4" />
    <circle cx="445.03" cy="348.291" r="54.5" transform="rotate(124.584 445.03 348.291)" fill="#FF9A6F" />
    <rect x="494.54" y="277.359" width="32" height="118" transform="rotate(124.584 494.54 277.359)" fill="#C4C4C4" />
    <rect x="413.94" y="394.268" width="32" height="118" transform="rotate(124.584 413.94 394.268)" fill="#C4C4C4" />
    <path fill-rule="evenodd" clip-rule="evenodd" d="M170.391 81.3818C130.832 54.109 76.6546 64.0685 49.3818 103.627C22.109 143.186 32.0685 197.363 71.6271 224.636L170.391 81.3818Z" fill="#C4C4C4" />
    <circle cx="121.137" cy="153.704" r="54.5" transform="rotate(-55.4165 121.137 153.704)" fill="#FF9A6F" />
    <rect x="71.6271" y="224.636" width="32" height="118" transform="rotate(-55.4165 71.6271 224.636)" fill="#C4C4C4" />
    <rect x="151.66" y="108.551" width="33" height="118" transform="rotate(-55.4165 151.66 108.551)" fill="#C4C4C4" />
    <path fill-rule="evenodd" clip-rule="evenodd" d="M168.776 291.614C208.335 318.886 262.513 308.927 289.785 269.368C317.058 229.81 307.099 175.632 267.54 148.359L168.776 291.614Z" fill="#C4C4C4" />
    <circle cx="218.03" cy="219.291" r="54.5" transform="rotate(124.584 218.03 219.291)" fill="#FF9A6F" />
    <rect x="267.54" y="148.359" width="32" height="118" transform="rotate(124.584 267.54 148.359)" fill="#C4C4C4" />
    <rect x="186.94" y="265.268" width="32" height="118" transform="rotate(124.584 186.94 265.268)" fill="#C4C4C4" />
    <path fill-rule="evenodd" clip-rule="evenodd" d="M942.888 189.018C979.562 157.974 984.127 103.078 953.083 66.4042C922.04 29.7302 867.144 25.1657 830.47 56.2092L942.888 189.018Z" fill="#C4C4C4" />
    <circle cx="885.974" cy="122.555" r="54.5" transform="rotate(49.7531 885.974 122.555)" fill="#FF9A6F" />
    <rect x="830.47" y="56.2092" width="32" height="118" transform="rotate(49.7531 830.47 56.2092)" fill="#C4C4C4" />
    <rect x="921.568" y="163.83" width="33" height="118" transform="rotate(49.7531 921.568 163.83)" fill="#C4C4C4" />
    <path fill-rule="evenodd" clip-rule="evenodd" d="M740.404 132.447C703.73 163.491 699.166 218.387 730.209 255.061C761.253 291.735 816.149 296.299 852.823 265.256L740.404 132.447Z" fill="#C4C4C4" />
    <circle cx="797.318" cy="198.91" r="54.5" transform="rotate(-130.247 797.318 198.91)" fill="#FF9A6F" />
    <rect x="852.823" y="265.256" width="32" height="118" transform="rotate(-130.247 852.823 265.256)" fill="#C4C4C4" />
    <rect x="761.079" y="156.872" width="32" height="118" transform="rotate(-130.247 761.079 156.872)" fill="#C4C4C4" />
    <path fill-rule="evenodd" clip-rule="evenodd" d="M735.32 326.548C769.853 293.139 770.764 238.061 737.355 203.528C703.946 168.995 648.868 168.084 614.335 201.492L735.32 326.548Z" fill="#C4C4C4" />
    <circle cx="674.12" cy="264.008" r="54.5" transform="rotate(45.9479 674.12 264.008)" fill="#FF9A6F" />
    <rect x="614.335" y="201.492" width="32" height="118" transform="rotate(45.9479 614.335 201.492)" fill="#C4C4C4" />
    <rect x="712.374" y="302.83" width="33" height="118" transform="rotate(45.9479 712.374 302.83)" fill="#C4C4C4" />
    <path fill-rule="evenodd" clip-rule="evenodd" d="M529.528 283.539C494.995 316.948 494.083 372.026 527.492 406.559C560.901 441.092 615.979 442.003 650.512 408.594L529.528 283.539Z" fill="#C4C4C4" />
    <circle cx="590.727" cy="346.078" r="54.5" transform="rotate(-134.052 590.727 346.078)" fill="#FF9A6F" />
    <rect x="650.512" y="408.594" width="32" height="118" transform="rotate(-134.052 650.512 408.594)" fill="#C4C4C4" />
    <rect x="551.778" y="306.538" width="32" height="118" transform="rotate(-134.052 551.778 306.538)" fill="#C4C4C4" />
    <path fill-rule="evenodd" clip-rule="evenodd" d="M601 432C601 383.951 562.049 345 514 345C465.951 345 427 383.951 427 432H601Z" fill="#C4C4C4" />
    <circle cx="513.5" cy="432.5" r="54.5" fill="#FF9A6F" />
    <rect x="427" y="432" width="32" height="55" fill="#C4C4C4" />
    <rect x="568" y="432" width="33" height="118" fill="#C4C4C4" />
    <rect id="lockbg" x="397" y="473" width="233.422" height="235.43" rx="40" fill="#FFC977" />
    <path id="lockq" d="M549.376 544.857C554.106 553.973 550.975 566.757 539.983 583.208C537.116 587.499 534.393 591.468 531.817 595.116C529.24 598.763 527.06 602.046 525.278 604.965C523.553 607.755 522.816 609.905 523.066 611.414C523.727 613.73 523.359 616.007 521.961 618.246C520.562 620.486 518.771 622.393 516.587 623.967C514.367 625.448 512.006 626.554 509.503 627.287C507 628.019 504.976 628.037 503.429 627.339C498.688 622.717 497.638 615.416 500.279 605.437C501.496 601.021 503.134 596.446 505.192 591.712C507.216 586.885 509.198 582.233 511.141 577.756C513.141 573.151 514.838 568.874 516.232 564.926C517.788 560.275 518.327 556.33 517.85 553.089L517.429 553.248C516.987 554.057 516.597 555.006 516.261 556.095C515.982 557.056 515.056 558.422 513.48 560.194C511.905 561.965 510.446 563.479 509.104 564.735C507.855 565.956 506.653 567.159 505.497 568.344C504.4 569.4 503.699 570.093 503.396 570.421C503.186 570.715 502.929 571.025 502.626 571.354C502.416 571.647 502.066 571.993 501.576 572.393L499.649 574.083C492.254 579.125 486.03 580.195 480.978 577.294C479.196 576.258 477.295 574.624 475.276 572.394C472.833 569.042 472.199 564.257 473.376 558.039C474.333 552.652 476.351 548.094 479.431 544.363C482.475 540.539 486.661 536.765 491.988 533.04C497.373 529.187 502.965 526.163 508.764 523.97C514.563 521.778 520.231 520.65 525.767 520.588C531.303 520.526 536.029 522 539.947 525.009C541.554 526.432 542.56 528.244 542.964 530.443C543.368 532.642 543.613 534.421 543.698 535.778C543.842 537.007 544.091 538.089 544.444 539.024C544.892 539.924 545.673 540.858 546.787 541.827C547.866 542.701 548.729 543.711 549.376 544.857ZM525.33 643.272C524.851 647.944 523.357 651.769 520.849 654.749C518.376 657.822 515.643 659.925 512.65 661.056C509.786 662.246 507.053 662.371 504.452 661.43C501.851 660.489 500.119 658.311 499.255 654.896C497.709 650.242 498.816 646.242 502.576 642.896C507.339 638.529 512.624 636.53 518.43 636.901C523.792 637.226 526.092 639.349 525.33 643.272Z" fill="#181818" />
</svg>
