<svg width="1200" height="1167" viewBox="0 0 1200 1167" fill="none" xmlns="http://www.w3.org/2000/svg">
<path d="M364.797 63.545L334.378 854.323C293.443 833.316 242.086 824.227 188.199 831.874C72.0065 848.33 -11.6605 935.982 1.32946 1027.62C14.3215 1119.27 119.043 1180.21 235.231 1163.75C338.35 1149.13 415.755 1078.44 422.788 998.672L422.81 998.717C422.826 998.536 422.836 998.265 422.852 998.061C423.025 996.035 423.123 993.981 423.198 991.942C427.525 909.574 454.013 283.916 454.013 283.916L1106.43 216.697L1076.96 780.176C1035.1 756.873 981.282 746.492 924.698 754.511C808.506 770.984 724.844 858.616 737.835 950.27C750.821 1041.91 855.544 1102.86 971.736 1086.38C1077.05 1071.47 1155.51 998.058 1159.63 916.206L1159.68 916.156C1161.89 879.373 1198.7 30.015 1200 0L364.797 63.545Z" fill="white"/>
</svg>
