<svg width="382" height="256" viewBox="0 0 382 256" fill="none" xmlns="http://www.w3.org/2000/svg">
<rect width="382" height="53" fill="white"/>
<rect y="69" width="382" height="53" fill="white"/>
<rect y="136" width="382" height="53" fill="white"/>
<rect y="203" width="382" height="53" fill="white"/>
<path d="M181.788 22.475C181.988 24.175 180.747 25.9833 178.063 27.9C177.363 28.4 176.705 28.8583 176.088 29.275C175.472 29.6917 174.938 30.075 174.488 30.425C174.055 30.7583 173.813 31.05 173.763 31.3C173.73 31.7 173.538 32.0333 173.188 32.3C172.838 32.5667 172.447 32.7583 172.013 32.875C171.58 32.975 171.147 33.0083 170.713 32.975C170.28 32.9417 169.963 32.825 169.763 32.625C169.297 31.625 169.563 30.425 170.563 29.025C171.013 28.4083 171.538 27.7917 172.138 27.175C172.738 26.5417 173.322 25.9333 173.888 25.35C174.472 24.75 174.988 24.1833 175.438 23.65C175.955 23.0167 176.272 22.4333 176.388 21.9H176.313C176.197 22 176.08 22.125 175.963 22.275C175.863 22.4083 175.638 22.5667 175.288 22.75C174.938 22.9333 174.622 23.0833 174.338 23.2C174.072 23.3167 173.813 23.4333 173.563 23.55C173.33 23.65 173.18 23.7167 173.113 23.75C173.063 23.7833 173.005 23.8167 172.938 23.85C172.888 23.8833 172.813 23.9167 172.713 23.95L172.313 24.1C170.863 24.45 169.83 24.25 169.213 23.5C168.997 23.2333 168.797 22.8667 168.613 22.4C168.43 21.7333 168.613 20.95 169.163 20.05C169.63 19.2667 170.213 18.675 170.913 18.275C171.613 17.8583 172.488 17.5167 173.538 17.25C174.605 16.9667 175.655 16.825 176.688 16.825C177.722 16.825 178.672 16.9833 179.538 17.3C180.405 17.6167 181.055 18.125 181.488 18.825C181.655 19.1417 181.705 19.4833 181.638 19.85C181.572 20.2167 181.505 20.5083 181.438 20.725C181.388 20.925 181.363 21.1083 181.363 21.275C181.38 21.4417 181.447 21.6333 181.563 21.85C181.68 22.05 181.755 22.2583 181.788 22.475ZM172.238 36.4C171.888 37.1 171.43 37.6083 170.863 37.925C170.297 38.2583 169.747 38.425 169.213 38.425C168.697 38.4417 168.263 38.3 167.913 38C167.563 37.7 167.422 37.2583 167.488 36.675C167.522 35.8583 167.93 35.3 168.713 35C169.713 34.6 170.655 34.6 171.538 35C172.355 35.3667 172.588 35.8333 172.238 36.4ZM196.046 22.475C196.246 24.175 195.004 25.9833 192.321 27.9C191.621 28.4 190.963 28.8583 190.346 29.275C189.729 29.6917 189.196 30.075 188.746 30.425C188.313 30.7583 188.071 31.05 188.021 31.3C187.988 31.7 187.796 32.0333 187.446 32.3C187.096 32.5667 186.704 32.7583 186.271 32.875C185.838 32.975 185.404 33.0083 184.971 32.975C184.538 32.9417 184.221 32.825 184.021 32.625C183.554 31.625 183.821 30.425 184.821 29.025C185.271 28.4083 185.796 27.7917 186.396 27.175C186.996 26.5417 187.579 25.9333 188.146 25.35C188.729 24.75 189.246 24.1833 189.696 23.65C190.213 23.0167 190.529 22.4333 190.646 21.9H190.571C190.454 22 190.338 22.125 190.221 22.275C190.121 22.4083 189.896 22.5667 189.546 22.75C189.196 22.9333 188.879 23.0833 188.596 23.2C188.329 23.3167 188.071 23.4333 187.821 23.55C187.588 23.65 187.438 23.7167 187.371 23.75C187.321 23.7833 187.263 23.8167 187.196 23.85C187.146 23.8833 187.071 23.9167 186.971 23.95L186.571 24.1C185.121 24.45 184.088 24.25 183.471 23.5C183.254 23.2333 183.054 22.8667 182.871 22.4C182.688 21.7333 182.871 20.95 183.421 20.05C183.888 19.2667 184.471 18.675 185.171 18.275C185.871 17.8583 186.746 17.5167 187.796 17.25C188.863 16.9667 189.913 16.825 190.946 16.825C191.979 16.825 192.929 16.9833 193.796 17.3C194.663 17.6167 195.313 18.125 195.746 18.825C195.913 19.1417 195.963 19.4833 195.896 19.85C195.829 20.2167 195.763 20.5083 195.696 20.725C195.646 20.925 195.621 21.1083 195.621 21.275C195.638 21.4417 195.704 21.6333 195.821 21.85C195.938 22.05 196.013 22.2583 196.046 22.475ZM186.496 36.4C186.146 37.1 185.688 37.6083 185.121 37.925C184.554 38.2583 184.004 38.425 183.471 38.425C182.954 38.4417 182.521 38.3 182.171 38C181.821 37.7 181.679 37.2583 181.746 36.675C181.779 35.8583 182.188 35.3 182.971 35C183.971 34.6 184.913 34.6 185.796 35C186.613 35.3667 186.846 35.8333 186.496 36.4ZM210.304 22.475C210.504 24.175 209.262 25.9833 206.579 27.9C205.879 28.4 205.221 28.8583 204.604 29.275C203.987 29.6917 203.454 30.075 203.004 30.425C202.571 30.7583 202.329 31.05 202.279 31.3C202.246 31.7 202.054 32.0333 201.704 32.3C201.354 32.5667 200.962 32.7583 200.529 32.875C200.096 32.975 199.662 33.0083 199.229 32.975C198.796 32.9417 198.479 32.825 198.279 32.625C197.812 31.625 198.079 30.425 199.079 29.025C199.529 28.4083 200.054 27.7917 200.654 27.175C201.254 26.5417 201.837 25.9333 202.404 25.35C202.987 24.75 203.504 24.1833 203.954 23.65C204.471 23.0167 204.787 22.4333 204.904 21.9H204.829C204.712 22 204.596 22.125 204.479 22.275C204.379 22.4083 204.154 22.5667 203.804 22.75C203.454 22.9333 203.137 23.0833 202.854 23.2C202.587 23.3167 202.329 23.4333 202.079 23.55C201.846 23.65 201.696 23.7167 201.629 23.75C201.579 23.7833 201.521 23.8167 201.454 23.85C201.404 23.8833 201.329 23.9167 201.229 23.95L200.829 24.1C199.379 24.45 198.346 24.25 197.729 23.5C197.512 23.2333 197.312 22.8667 197.129 22.4C196.946 21.7333 197.129 20.95 197.679 20.05C198.146 19.2667 198.729 18.675 199.429 18.275C200.129 17.8583 201.004 17.5167 202.054 17.25C203.121 16.9667 204.171 16.825 205.204 16.825C206.237 16.825 207.187 16.9833 208.054 17.3C208.921 17.6167 209.571 18.125 210.004 18.825C210.171 19.1417 210.221 19.4833 210.154 19.85C210.087 20.2167 210.021 20.5083 209.954 20.725C209.904 20.925 209.879 21.1083 209.879 21.275C209.896 21.4417 209.962 21.6333 210.079 21.85C210.196 22.05 210.271 22.2583 210.304 22.475ZM200.754 36.4C200.404 37.1 199.946 37.6083 199.379 37.925C198.812 38.2583 198.262 38.425 197.729 38.425C197.212 38.4417 196.779 38.3 196.429 38C196.079 37.7 195.937 37.2583 196.004 36.675C196.037 35.8583 196.446 35.3 197.229 35C198.229 34.6 199.171 34.6 200.054 35C200.871 35.3667 201.104 35.8333 200.754 36.4Z" fill="#181818"/>
<path d="M181.788 91.475C181.988 93.175 180.747 94.9833 178.063 96.9C177.363 97.4 176.705 97.8583 176.088 98.275C175.472 98.6917 174.938 99.075 174.488 99.425C174.055 99.7583 173.813 100.05 173.763 100.3C173.73 100.7 173.538 101.033 173.188 101.3C172.838 101.567 172.447 101.758 172.013 101.875C171.58 101.975 171.147 102.008 170.713 101.975C170.28 101.942 169.963 101.825 169.763 101.625C169.297 100.625 169.563 99.425 170.563 98.025C171.013 97.4083 171.538 96.7917 172.138 96.175C172.738 95.5417 173.322 94.9333 173.888 94.35C174.472 93.75 174.988 93.1833 175.438 92.65C175.955 92.0167 176.272 91.4333 176.388 90.9H176.313C176.197 91 176.08 91.125 175.963 91.275C175.863 91.4083 175.638 91.5667 175.288 91.75C174.938 91.9333 174.622 92.0833 174.338 92.2C174.072 92.3167 173.813 92.4333 173.563 92.55C173.33 92.65 173.18 92.7167 173.113 92.75C173.063 92.7833 173.005 92.8167 172.938 92.85C172.888 92.8833 172.813 92.9167 172.713 92.95L172.313 93.1C170.863 93.45 169.83 93.25 169.213 92.5C168.997 92.2333 168.797 91.8667 168.613 91.4C168.43 90.7333 168.613 89.95 169.163 89.05C169.63 88.2667 170.213 87.675 170.913 87.275C171.613 86.8583 172.488 86.5167 173.538 86.25C174.605 85.9667 175.655 85.825 176.688 85.825C177.722 85.825 178.672 85.9833 179.538 86.3C180.405 86.6167 181.055 87.125 181.488 87.825C181.655 88.1417 181.705 88.4833 181.638 88.85C181.572 89.2167 181.505 89.5083 181.438 89.725C181.388 89.925 181.363 90.1083 181.363 90.275C181.38 90.4417 181.447 90.6333 181.563 90.85C181.68 91.05 181.755 91.2583 181.788 91.475ZM172.238 105.4C171.888 106.1 171.43 106.608 170.863 106.925C170.297 107.258 169.747 107.425 169.213 107.425C168.697 107.442 168.263 107.3 167.913 107C167.563 106.7 167.422 106.258 167.488 105.675C167.522 104.858 167.93 104.3 168.713 104C169.713 103.6 170.655 103.6 171.538 104C172.355 104.367 172.588 104.833 172.238 105.4ZM196.046 91.475C196.246 93.175 195.004 94.9833 192.321 96.9C191.621 97.4 190.963 97.8583 190.346 98.275C189.729 98.6917 189.196 99.075 188.746 99.425C188.313 99.7583 188.071 100.05 188.021 100.3C187.988 100.7 187.796 101.033 187.446 101.3C187.096 101.567 186.704 101.758 186.271 101.875C185.838 101.975 185.404 102.008 184.971 101.975C184.538 101.942 184.221 101.825 184.021 101.625C183.554 100.625 183.821 99.425 184.821 98.025C185.271 97.4083 185.796 96.7917 186.396 96.175C186.996 95.5417 187.579 94.9333 188.146 94.35C188.729 93.75 189.246 93.1833 189.696 92.65C190.213 92.0167 190.529 91.4333 190.646 90.9H190.571C190.454 91 190.338 91.125 190.221 91.275C190.121 91.4083 189.896 91.5667 189.546 91.75C189.196 91.9333 188.879 92.0833 188.596 92.2C188.329 92.3167 188.071 92.4333 187.821 92.55C187.588 92.65 187.438 92.7167 187.371 92.75C187.321 92.7833 187.263 92.8167 187.196 92.85C187.146 92.8833 187.071 92.9167 186.971 92.95L186.571 93.1C185.121 93.45 184.088 93.25 183.471 92.5C183.254 92.2333 183.054 91.8667 182.871 91.4C182.688 90.7333 182.871 89.95 183.421 89.05C183.888 88.2667 184.471 87.675 185.171 87.275C185.871 86.8583 186.746 86.5167 187.796 86.25C188.863 85.9667 189.913 85.825 190.946 85.825C191.979 85.825 192.929 85.9833 193.796 86.3C194.663 86.6167 195.313 87.125 195.746 87.825C195.913 88.1417 195.963 88.4833 195.896 88.85C195.829 89.2167 195.763 89.5083 195.696 89.725C195.646 89.925 195.621 90.1083 195.621 90.275C195.638 90.4417 195.704 90.6333 195.821 90.85C195.938 91.05 196.013 91.2583 196.046 91.475ZM186.496 105.4C186.146 106.1 185.688 106.608 185.121 106.925C184.554 107.258 184.004 107.425 183.471 107.425C182.954 107.442 182.521 107.3 182.171 107C181.821 106.7 181.679 106.258 181.746 105.675C181.779 104.858 182.188 104.3 182.971 104C183.971 103.6 184.913 103.6 185.796 104C186.613 104.367 186.846 104.833 186.496 105.4ZM210.304 91.475C210.504 93.175 209.262 94.9833 206.579 96.9C205.879 97.4 205.221 97.8583 204.604 98.275C203.987 98.6917 203.454 99.075 203.004 99.425C202.571 99.7583 202.329 100.05 202.279 100.3C202.246 100.7 202.054 101.033 201.704 101.3C201.354 101.567 200.962 101.758 200.529 101.875C200.096 101.975 199.662 102.008 199.229 101.975C198.796 101.942 198.479 101.825 198.279 101.625C197.812 100.625 198.079 99.425 199.079 98.025C199.529 97.4083 200.054 96.7917 200.654 96.175C201.254 95.5417 201.837 94.9333 202.404 94.35C202.987 93.75 203.504 93.1833 203.954 92.65C204.471 92.0167 204.787 91.4333 204.904 90.9H204.829C204.712 91 204.596 91.125 204.479 91.275C204.379 91.4083 204.154 91.5667 203.804 91.75C203.454 91.9333 203.137 92.0833 202.854 92.2C202.587 92.3167 202.329 92.4333 202.079 92.55C201.846 92.65 201.696 92.7167 201.629 92.75C201.579 92.7833 201.521 92.8167 201.454 92.85C201.404 92.8833 201.329 92.9167 201.229 92.95L200.829 93.1C199.379 93.45 198.346 93.25 197.729 92.5C197.512 92.2333 197.312 91.8667 197.129 91.4C196.946 90.7333 197.129 89.95 197.679 89.05C198.146 88.2667 198.729 87.675 199.429 87.275C200.129 86.8583 201.004 86.5167 202.054 86.25C203.121 85.9667 204.171 85.825 205.204 85.825C206.237 85.825 207.187 85.9833 208.054 86.3C208.921 86.6167 209.571 87.125 210.004 87.825C210.171 88.1417 210.221 88.4833 210.154 88.85C210.087 89.2167 210.021 89.5083 209.954 89.725C209.904 89.925 209.879 90.1083 209.879 90.275C209.896 90.4417 209.962 90.6333 210.079 90.85C210.196 91.05 210.271 91.2583 210.304 91.475ZM200.754 105.4C200.404 106.1 199.946 106.608 199.379 106.925C198.812 107.258 198.262 107.425 197.729 107.425C197.212 107.442 196.779 107.3 196.429 107C196.079 106.7 195.937 106.258 196.004 105.675C196.037 104.858 196.446 104.3 197.229 104C198.229 103.6 199.171 103.6 200.054 104C200.871 104.367 201.104 104.833 200.754 105.4Z" fill="#181818"/>
<path d="M181.788 158.475C181.988 160.175 180.747 161.983 178.063 163.9C177.363 164.4 176.705 164.858 176.088 165.275C175.472 165.692 174.938 166.075 174.488 166.425C174.055 166.758 173.813 167.05 173.763 167.3C173.73 167.7 173.538 168.033 173.188 168.3C172.838 168.567 172.447 168.758 172.013 168.875C171.58 168.975 171.147 169.008 170.713 168.975C170.28 168.942 169.963 168.825 169.763 168.625C169.297 167.625 169.563 166.425 170.563 165.025C171.013 164.408 171.538 163.792 172.138 163.175C172.738 162.542 173.322 161.933 173.888 161.35C174.472 160.75 174.988 160.183 175.438 159.65C175.955 159.017 176.272 158.433 176.388 157.9H176.313C176.197 158 176.08 158.125 175.963 158.275C175.863 158.408 175.638 158.567 175.288 158.75C174.938 158.933 174.622 159.083 174.338 159.2C174.072 159.317 173.813 159.433 173.563 159.55C173.33 159.65 173.18 159.717 173.113 159.75C173.063 159.783 173.005 159.817 172.938 159.85C172.888 159.883 172.813 159.917 172.713 159.95L172.313 160.1C170.863 160.45 169.83 160.25 169.213 159.5C168.997 159.233 168.797 158.867 168.613 158.4C168.43 157.733 168.613 156.95 169.163 156.05C169.63 155.267 170.213 154.675 170.913 154.275C171.613 153.858 172.488 153.517 173.538 153.25C174.605 152.967 175.655 152.825 176.688 152.825C177.722 152.825 178.672 152.983 179.538 153.3C180.405 153.617 181.055 154.125 181.488 154.825C181.655 155.142 181.705 155.483 181.638 155.85C181.572 156.217 181.505 156.508 181.438 156.725C181.388 156.925 181.363 157.108 181.363 157.275C181.38 157.442 181.447 157.633 181.563 157.85C181.68 158.05 181.755 158.258 181.788 158.475ZM172.238 172.4C171.888 173.1 171.43 173.608 170.863 173.925C170.297 174.258 169.747 174.425 169.213 174.425C168.697 174.442 168.263 174.3 167.913 174C167.563 173.7 167.422 173.258 167.488 172.675C167.522 171.858 167.93 171.3 168.713 171C169.713 170.6 170.655 170.6 171.538 171C172.355 171.367 172.588 171.833 172.238 172.4ZM196.046 158.475C196.246 160.175 195.004 161.983 192.321 163.9C191.621 164.4 190.963 164.858 190.346 165.275C189.729 165.692 189.196 166.075 188.746 166.425C188.313 166.758 188.071 167.05 188.021 167.3C187.988 167.7 187.796 168.033 187.446 168.3C187.096 168.567 186.704 168.758 186.271 168.875C185.838 168.975 185.404 169.008 184.971 168.975C184.538 168.942 184.221 168.825 184.021 168.625C183.554 167.625 183.821 166.425 184.821 165.025C185.271 164.408 185.796 163.792 186.396 163.175C186.996 162.542 187.579 161.933 188.146 161.35C188.729 160.75 189.246 160.183 189.696 159.65C190.213 159.017 190.529 158.433 190.646 157.9H190.571C190.454 158 190.338 158.125 190.221 158.275C190.121 158.408 189.896 158.567 189.546 158.75C189.196 158.933 188.879 159.083 188.596 159.2C188.329 159.317 188.071 159.433 187.821 159.55C187.588 159.65 187.438 159.717 187.371 159.75C187.321 159.783 187.263 159.817 187.196 159.85C187.146 159.883 187.071 159.917 186.971 159.95L186.571 160.1C185.121 160.45 184.088 160.25 183.471 159.5C183.254 159.233 183.054 158.867 182.871 158.4C182.688 157.733 182.871 156.95 183.421 156.05C183.888 155.267 184.471 154.675 185.171 154.275C185.871 153.858 186.746 153.517 187.796 153.25C188.863 152.967 189.913 152.825 190.946 152.825C191.979 152.825 192.929 152.983 193.796 153.3C194.663 153.617 195.313 154.125 195.746 154.825C195.913 155.142 195.963 155.483 195.896 155.85C195.829 156.217 195.763 156.508 195.696 156.725C195.646 156.925 195.621 157.108 195.621 157.275C195.638 157.442 195.704 157.633 195.821 157.85C195.938 158.05 196.013 158.258 196.046 158.475ZM186.496 172.4C186.146 173.1 185.688 173.608 185.121 173.925C184.554 174.258 184.004 174.425 183.471 174.425C182.954 174.442 182.521 174.3 182.171 174C181.821 173.7 181.679 173.258 181.746 172.675C181.779 171.858 182.188 171.3 182.971 171C183.971 170.6 184.913 170.6 185.796 171C186.613 171.367 186.846 171.833 186.496 172.4ZM210.304 158.475C210.504 160.175 209.262 161.983 206.579 163.9C205.879 164.4 205.221 164.858 204.604 165.275C203.987 165.692 203.454 166.075 203.004 166.425C202.571 166.758 202.329 167.05 202.279 167.3C202.246 167.7 202.054 168.033 201.704 168.3C201.354 168.567 200.962 168.758 200.529 168.875C200.096 168.975 199.662 169.008 199.229 168.975C198.796 168.942 198.479 168.825 198.279 168.625C197.812 167.625 198.079 166.425 199.079 165.025C199.529 164.408 200.054 163.792 200.654 163.175C201.254 162.542 201.837 161.933 202.404 161.35C202.987 160.75 203.504 160.183 203.954 159.65C204.471 159.017 204.787 158.433 204.904 157.9H204.829C204.712 158 204.596 158.125 204.479 158.275C204.379 158.408 204.154 158.567 203.804 158.75C203.454 158.933 203.137 159.083 202.854 159.2C202.587 159.317 202.329 159.433 202.079 159.55C201.846 159.65 201.696 159.717 201.629 159.75C201.579 159.783 201.521 159.817 201.454 159.85C201.404 159.883 201.329 159.917 201.229 159.95L200.829 160.1C199.379 160.45 198.346 160.25 197.729 159.5C197.512 159.233 197.312 158.867 197.129 158.4C196.946 157.733 197.129 156.95 197.679 156.05C198.146 155.267 198.729 154.675 199.429 154.275C200.129 153.858 201.004 153.517 202.054 153.25C203.121 152.967 204.171 152.825 205.204 152.825C206.237 152.825 207.187 152.983 208.054 153.3C208.921 153.617 209.571 154.125 210.004 154.825C210.171 155.142 210.221 155.483 210.154 155.85C210.087 156.217 210.021 156.508 209.954 156.725C209.904 156.925 209.879 157.108 209.879 157.275C209.896 157.442 209.962 157.633 210.079 157.85C210.196 158.05 210.271 158.258 210.304 158.475ZM200.754 172.4C200.404 173.1 199.946 173.608 199.379 173.925C198.812 174.258 198.262 174.425 197.729 174.425C197.212 174.442 196.779 174.3 196.429 174C196.079 173.7 195.937 173.258 196.004 172.675C196.037 171.858 196.446 171.3 197.229 171C198.229 170.6 199.171 170.6 200.054 171C200.871 171.367 201.104 171.833 200.754 172.4Z" fill="#181818"/>
<path d="M181.788 225.475C181.988 227.175 180.747 228.983 178.063 230.9C177.363 231.4 176.705 231.858 176.088 232.275C175.472 232.692 174.938 233.075 174.488 233.425C174.055 233.758 173.813 234.05 173.763 234.3C173.73 234.7 173.538 235.033 173.188 235.3C172.838 235.567 172.447 235.758 172.013 235.875C171.58 235.975 171.147 236.008 170.713 235.975C170.28 235.942 169.963 235.825 169.763 235.625C169.297 234.625 169.563 233.425 170.563 232.025C171.013 231.408 171.538 230.792 172.138 230.175C172.738 229.542 173.322 228.933 173.888 228.35C174.472 227.75 174.988 227.183 175.438 226.65C175.955 226.017 176.272 225.433 176.388 224.9H176.313C176.197 225 176.08 225.125 175.963 225.275C175.863 225.408 175.638 225.567 175.288 225.75C174.938 225.933 174.622 226.083 174.338 226.2C174.072 226.317 173.813 226.433 173.563 226.55C173.33 226.65 173.18 226.717 173.113 226.75C173.063 226.783 173.005 226.817 172.938 226.85C172.888 226.883 172.813 226.917 172.713 226.95L172.313 227.1C170.863 227.45 169.83 227.25 169.213 226.5C168.997 226.233 168.797 225.867 168.613 225.4C168.43 224.733 168.613 223.95 169.163 223.05C169.63 222.267 170.213 221.675 170.913 221.275C171.613 220.858 172.488 220.517 173.538 220.25C174.605 219.967 175.655 219.825 176.688 219.825C177.722 219.825 178.672 219.983 179.538 220.3C180.405 220.617 181.055 221.125 181.488 221.825C181.655 222.142 181.705 222.483 181.638 222.85C181.572 223.217 181.505 223.508 181.438 223.725C181.388 223.925 181.363 224.108 181.363 224.275C181.38 224.442 181.447 224.633 181.563 224.85C181.68 225.05 181.755 225.258 181.788 225.475ZM172.238 239.4C171.888 240.1 171.43 240.608 170.863 240.925C170.297 241.258 169.747 241.425 169.213 241.425C168.697 241.442 168.263 241.3 167.913 241C167.563 240.7 167.422 240.258 167.488 239.675C167.522 238.858 167.93 238.3 168.713 238C169.713 237.6 170.655 237.6 171.538 238C172.355 238.367 172.588 238.833 172.238 239.4ZM196.046 225.475C196.246 227.175 195.004 228.983 192.321 230.9C191.621 231.4 190.963 231.858 190.346 232.275C189.729 232.692 189.196 233.075 188.746 233.425C188.313 233.758 188.071 234.05 188.021 234.3C187.988 234.7 187.796 235.033 187.446 235.3C187.096 235.567 186.704 235.758 186.271 235.875C185.838 235.975 185.404 236.008 184.971 235.975C184.538 235.942 184.221 235.825 184.021 235.625C183.554 234.625 183.821 233.425 184.821 232.025C185.271 231.408 185.796 230.792 186.396 230.175C186.996 229.542 187.579 228.933 188.146 228.35C188.729 227.75 189.246 227.183 189.696 226.65C190.213 226.017 190.529 225.433 190.646 224.9H190.571C190.454 225 190.338 225.125 190.221 225.275C190.121 225.408 189.896 225.567 189.546 225.75C189.196 225.933 188.879 226.083 188.596 226.2C188.329 226.317 188.071 226.433 187.821 226.55C187.588 226.65 187.438 226.717 187.371 226.75C187.321 226.783 187.263 226.817 187.196 226.85C187.146 226.883 187.071 226.917 186.971 226.95L186.571 227.1C185.121 227.45 184.088 227.25 183.471 226.5C183.254 226.233 183.054 225.867 182.871 225.4C182.688 224.733 182.871 223.95 183.421 223.05C183.888 222.267 184.471 221.675 185.171 221.275C185.871 220.858 186.746 220.517 187.796 220.25C188.863 219.967 189.913 219.825 190.946 219.825C191.979 219.825 192.929 219.983 193.796 220.3C194.663 220.617 195.313 221.125 195.746 221.825C195.913 222.142 195.963 222.483 195.896 222.85C195.829 223.217 195.763 223.508 195.696 223.725C195.646 223.925 195.621 224.108 195.621 224.275C195.638 224.442 195.704 224.633 195.821 224.85C195.938 225.05 196.013 225.258 196.046 225.475ZM186.496 239.4C186.146 240.1 185.688 240.608 185.121 240.925C184.554 241.258 184.004 241.425 183.471 241.425C182.954 241.442 182.521 241.3 182.171 241C181.821 240.7 181.679 240.258 181.746 239.675C181.779 238.858 182.188 238.3 182.971 238C183.971 237.6 184.913 237.6 185.796 238C186.613 238.367 186.846 238.833 186.496 239.4ZM210.304 225.475C210.504 227.175 209.262 228.983 206.579 230.9C205.879 231.4 205.221 231.858 204.604 232.275C203.987 232.692 203.454 233.075 203.004 233.425C202.571 233.758 202.329 234.05 202.279 234.3C202.246 234.7 202.054 235.033 201.704 235.3C201.354 235.567 200.962 235.758 200.529 235.875C200.096 235.975 199.662 236.008 199.229 235.975C198.796 235.942 198.479 235.825 198.279 235.625C197.812 234.625 198.079 233.425 199.079 232.025C199.529 231.408 200.054 230.792 200.654 230.175C201.254 229.542 201.837 228.933 202.404 228.35C202.987 227.75 203.504 227.183 203.954 226.65C204.471 226.017 204.787 225.433 204.904 224.9H204.829C204.712 225 204.596 225.125 204.479 225.275C204.379 225.408 204.154 225.567 203.804 225.75C203.454 225.933 203.137 226.083 202.854 226.2C202.587 226.317 202.329 226.433 202.079 226.55C201.846 226.65 201.696 226.717 201.629 226.75C201.579 226.783 201.521 226.817 201.454 226.85C201.404 226.883 201.329 226.917 201.229 226.95L200.829 227.1C199.379 227.45 198.346 227.25 197.729 226.5C197.512 226.233 197.312 225.867 197.129 225.4C196.946 224.733 197.129 223.95 197.679 223.05C198.146 222.267 198.729 221.675 199.429 221.275C200.129 220.858 201.004 220.517 202.054 220.25C203.121 219.967 204.171 219.825 205.204 219.825C206.237 219.825 207.187 219.983 208.054 220.3C208.921 220.617 209.571 221.125 210.004 221.825C210.171 222.142 210.221 222.483 210.154 222.85C210.087 223.217 210.021 223.508 209.954 223.725C209.904 223.925 209.879 224.108 209.879 224.275C209.896 224.442 209.962 224.633 210.079 224.85C210.196 225.05 210.271 225.258 210.304 225.475ZM200.754 239.4C200.404 240.1 199.946 240.608 199.379 240.925C198.812 241.258 198.262 241.425 197.729 241.425C197.212 241.442 196.779 241.3 196.429 241C196.079 240.7 195.937 240.258 196.004 239.675C196.037 238.858 196.446 238.3 197.229 238C198.229 237.6 199.171 237.6 200.054 238C200.871 238.367 201.104 238.833 200.754 239.4Z" fill="#181818"/>
</svg>
