<svg width="538" height="631" viewBox="0 0 538 631" fill="none" xmlns="http://www.w3.org/2000/svg">
<path d="M89.6667 210.333V180.286C89.6667 132.471 108.561 86.6146 142.192 52.8045C175.824 18.9943 221.438 0 269 0C316.562 0 362.176 18.9943 395.808 52.8045C429.439 86.6146 448.333 132.471 448.333 180.286V210.333H508.111C516.038 210.333 523.641 213.499 529.246 219.134C534.851 224.769 538 232.412 538 240.381V600.952C538 608.922 534.851 616.564 529.246 622.199C523.641 627.834 516.038 631 508.111 631H29.8889C21.9619 631 14.3595 627.834 8.75425 622.199C3.149 616.564 0 608.922 0 600.952V240.381C0 232.412 3.149 224.769 8.75425 219.134C14.3595 213.499 21.9619 210.333 29.8889 210.333H89.6667ZM478.222 270.429H59.7778V570.905H478.222V270.429ZM239.111 442.662C227.715 436.047 218.808 425.837 213.773 413.615C208.737 401.393 207.853 387.842 211.259 375.064C214.665 362.285 222.17 350.994 232.61 342.941C243.049 334.887 255.841 330.522 269 330.522C282.159 330.522 294.951 334.887 305.39 342.941C315.83 350.994 323.335 362.285 326.741 375.064C330.147 387.842 329.263 401.393 324.227 413.615C319.192 425.837 310.285 436.047 298.889 442.662V510.81H239.111V442.662ZM149.444 210.333H388.556V180.286C388.556 148.409 375.96 117.838 353.539 95.2982C331.118 72.7581 300.708 60.0952 269 60.0952C237.292 60.0952 206.882 72.7581 184.461 95.2982C162.04 117.838 149.444 148.409 149.444 180.286V210.333Z" fill="white"/>
</svg>
