<svg width="90" height="46" viewBox="0 0 6833 3481" fill="none" xmlns="http://www.w3.org/2000/svg">
<ellipse cx="5761.98" cy="645.959" rx="95.7336" ry="95.6976" fill="white"/>
<path d="M5286.46 700.751C5245.46 709.851 5179.41 741.704 5142.97 769.006C5090.58 807.683 5073.89 801.468 5035 786.516C4977.66 759.601 4814.98 775.831 4755.77 828.16C4730.71 853.187 4694.27 903.24 4678.32 944.193C4644.16 1023.82 4635.05 1237.69 4664.66 1255.89C4673.77 1260.44 4737.54 1230.86 4803.6 1189.91C4871.93 1146.68 4935.7 1117.11 4947.09 1123.93C4956.2 1130.76 4965.31 1192.19 4965.31 1260.44C4965.31 1442.45 5004.03 1442.45 5190.8 1260.44C5277.35 1178.53 5363.9 1110.28 5384.4 1110.28C5402.62 1110.28 5436.79 1135.31 5457.29 1167.16C5477.79 1199.01 5511.95 1224.04 5532.45 1224.04C5552.95 1224.04 5655.44 1137.58 5760.22 1032.92L5949.26 841.811L5892.32 803.133C5855.88 780.381 5798.94 766.73 5746.55 771.281C5698.72 773.556 5628.11 759.905 5591.67 741.704C5498.28 693.925 5382.12 677.999 5286.46 700.751ZM5808.05 921.442C5853.6 944.194 5798.94 880.489 5853.6 875.939C5908.27 873.664 5837.66 828.16 5844.49 839.536C5858.16 864.562 5571.17 1032.92 5532.45 1032.92C5521.06 1032.92 5509.67 1051.13 5500.56 1032.92C5500.56 941.918 5457.29 1082.98 5432.23 1069.33C5370.73 1037.47 5332.02 1032.92 5170.3 1189.91C5097.42 1260.44 5115.64 1128.48 5113.36 1117.11C5106.53 1017 5006.31 1144.41 4985.81 1117.11C4956.2 1085.25 4837.76 1076.15 4824.1 1108C4821.82 1117.11 5004.99 1103.45 4977.66 1110.28C4929.82 1126.21 5227.24 1280.92 5227.24 1189.91C5229.52 1121.66 5302.41 1146.68 5341.13 1098.9C5393.51 1035.2 5211.3 1071.6 5352.52 1076.15C5466.4 1078.43 5593.95 1123.93 5648.61 1092.08C5737.44 1037.48 5705.55 866.838 5808.05 921.442Z" fill="white"/>
<path d="M5921.93 1770.08C5921.93 2202.36 5912.82 2184.16 6095.04 2184.16C6288.64 2184.16 6377.47 2095.43 6377.47 1897.49C6377.47 1815.58 6354.33 1749.47 6318.43 1704.61C6294.06 1674.17 6272.69 1660.87 6231.7 1649.49C6181.59 1635.84 6136.03 1629.02 6095.04 1649.49L6035.82 1681.35V1544.84C6035.82 1472.03 6030.28 1437.52 6025.25 1408.55C6020.22 1379.58 5968.4 1378.64 5950.45 1390.61C5912.96 1408.55 5921.93 1426.53 5921.93 1770.08ZM6231.7 1786C6259.03 1826.96 6265.86 1872.46 6256.75 1938.44C6243.08 2045.37 6195.25 2093.15 6099.59 2093.15C6035.82 2093.15 6035.82 2090.88 6035.82 1954.37C6035.82 1879.29 6047.2 1797.38 6058.59 1772.35C6092.76 1708.65 6186.14 1717.75 6231.7 1786Z" fill="white"/>
<path d="M4669.22 1569.86C4669.22 1622.19 4660.11 1638.12 4623.66 1638.12C4594.05 1638.12 4562.31 1654.1 4562.31 1683.68C4562.31 1713.26 4607.5 1725.55 4637.11 1725.55C4678.1 1725.55 4669.22 1745.05 4669.22 1913.41C4669.22 2150.03 4687.44 2184.16 4817.27 2184.16C4908.37 2184.16 4945.25 2177.05 4945.25 2129.27C4945.25 2088.32 4894.71 2079.15 4844.6 2081.42C4780.82 2081.42 4794.49 2081.78 4787.66 1904.31L4780.82 1729.13H4851.43C4908.37 1729.13 4922.17 1704.1 4915.33 1672.25C4910.78 1649.49 4883.32 1647.22 4844.6 1642.67C4796.77 1635.84 4783.1 1622.19 4783.1 1581.24C4783.1 1533.46 4769.55 1510.23 4714.89 1510.23C4703.5 1510.23 4669.22 1531.19 4669.22 1569.86ZM4691.99 1615.37C4657.83 1654.05 4680.6 1722.3 4701.1 1672.25C4712.49 1640.39 4721.6 1638.12 4748.93 1660.87C4773.99 1681.35 4714.77 1592.62 4691.99 1615.37Z" fill="white"/>
<path d="M4367.18 2590.45C4367.18 2622.49 4361.63 2632.25 4339.42 2632.25C4321.38 2632.25 4302.04 2642.04 4302.04 2660.15C4302.04 2678.26 4329.57 2685.79 4347.61 2685.79C4372.6 2685.79 4367.18 2697.73 4367.18 2800.83C4367.18 2945.73 4378.28 2966.63 4457.4 2966.63C4512.92 2966.63 4535.39 2962.27 4535.39 2933.02C4535.39 2907.94 4504.59 2902.32 4474.05 2903.71C4435.19 2903.71 4443.52 2903.93 4439.35 2795.26L4435.19 2687.98H4478.22C4512.92 2687.98 4521.32 2672.65 4517.16 2653.15C4514.38 2639.21 4497.65 2637.82 4474.05 2635.03C4444.91 2630.85 4436.58 2622.49 4436.58 2597.42C4436.58 2568.16 4428.32 2553.93 4395.01 2553.93C4388.07 2553.93 4367.18 2566.76 4367.18 2590.45ZM4381.06 2618.31C4360.24 2642 4374.12 2683.8 4386.61 2653.15C4393.55 2633.64 4399.1 2632.25 4415.76 2646.18C4431.03 2658.72 4394.94 2604.38 4381.06 2618.31Z" fill="white"/>
<path d="M611.34 1641.21C574.897 1661.69 566.465 1671.82 548.515 1662.85C530.564 1653.88 517.082 1641.21 492.028 1641.21C451.03 1641.21 448.752 1659.41 448.752 1993.86V2346.51H519.36C572.448 2346.51 564.913 2353.67 564.913 2272.92V2150.21C564.913 2150.21 580.857 2162.27 630.965 2162.27C681.074 2162.27 758.515 2145.68 783.569 2134.3C880.591 2063.58 894.512 1863.11 841.699 1731.63C817.766 1692.76 789.955 1664.54 748.957 1650.89C660.766 1631.37 680.149 1626.96 611.34 1641.21ZM758.515 1789.1C785.847 1830.05 775.097 1856.47 780.829 1937.88C767.163 2044.81 715.239 2100.8 630.965 2091.69C578.579 2084.87 576.301 2078.04 578.579 1932.43C580.857 1848.25 587.69 1768.62 596.8 1754.97C624.132 1711.74 719.794 1729.94 758.515 1789.1ZM851.899 1964.29C845.066 1982.49 861.604 1971.88 861.604 1946.85C859.326 1921.82 842.788 1911.96 849.621 1921.06C856.454 1927.88 858.732 1948.36 851.899 1964.29ZM494.305 2141.75C501.138 2153.12 553.525 2141.75 542.136 2141.75C528.47 2141.75 517.082 2130.37 517.082 2119C517.082 2105.35 473.806 2091.69 494.305 2096.24C501.138 2096.24 487.472 2128.1 494.305 2141.75Z" fill="white"/>
<path d="M1100.11 1637.19C929.287 1680.42 890.567 2001.22 1038.62 2128.63C1088.72 2171.85 1120.61 2178.68 1227.66 2174.13C1346.1 2167.3 1355.21 2162.75 1355.21 2110.43C1355.21 2071.75 1343.82 2055.82 1321.05 2062.65C1168.44 2103.6 1070.5 2067.2 1070.5 1969.37C1070.5 1932.96 1091 1928.41 1232.22 1928.41L1295.4 1920.44L1346.26 1905.48L1364.21 1871.53V1827.73C1340.27 1666.24 1252.72 1598.51 1100.11 1637.19ZM1252.72 1766.88C1293.71 1841.96 1284.6 1837.41 1173 1837.41C1104.67 1837.41 1065.04 1841.72 1065.04 1821.25C1065.04 1737.06 1211.72 1691.8 1252.72 1766.88ZM990.783 1871.53C997.616 1892.01 958.895 1939.79 990.783 1951.16C977.117 1985.29 1004.45 1964.81 1004.45 1898.84C1002.17 1807.83 974.84 1805.55 990.783 1871.53Z" fill="white"/>
<path d="M1972.46 1649.49C1913.24 1660.87 1881.35 1660.87 1881.35 1660.87C1881.35 1660.87 1858.57 1626.74 1828.97 1638.12C1799.36 1649.49 1799.36 1701.82 1799.36 1911.14V2184.16H1856.3C1913.24 2184.16 1913.24 2181.88 1913.24 1981.67C1913.24 1763.25 1933.74 1720.02 2031.68 1733.68C2081.79 1740.5 2084.06 1749.6 2090.9 1961.19C2097.73 2181.88 2097.73 2184.16 2152.39 2184.16C2209.34 2184.16 2209.34 2181.88 2209.34 1981.67C2209.34 1763.25 2229.83 1720.02 2327.77 1733.68C2377.88 1740.5 2380.16 1749.6 2386.99 1961.19C2393.83 2181.88 2393.83 2184.16 2448.49 2184.16C2505.43 2184.16 2505.43 2184.16 2505.43 1949.82C2505.43 1745.05 2498.6 1708.65 2462.16 1674.52C2412.05 1629.02 2270.83 1619.92 2223 1658.6C2200.22 1676.8 2175.17 1674.52 2127.34 1649.49C2043.32 1626.86 2031.68 1638.12 1972.46 1649.49ZM2095.45 1660.87C2088.62 1667.7 2138.73 1758.7 2131.89 1735.95C2118.23 1704.1 2120.51 1701.82 2143.28 1722.3C2159.23 1738.23 2102.29 1654.05 2095.45 1660.87Z" fill="white"/>
<path d="M3286.67 1649.49C3243.4 1667.7 3206.95 1672.25 3200.12 1658.59C3191.01 1647.22 3165.96 1638.12 3140.9 1638.12C3099.9 1638.12 3097.63 1656.32 3097.63 1911.14V2184.16H3154.57C3211.51 2184.16 3210.07 2209.98 3210.07 2024.6C3210.07 1826.66 3247.95 1729.12 3334.5 1729.12C3425.61 1729.12 3443.83 1776.9 3434.72 1988.49L3427.89 2184.16H3491.66H3553.16V1979.39C3553.16 1745.05 3528.1 1672.25 3432.44 1638.12C3396 1626.74 3352.96 1632.84 3350.68 1632.84C3348.4 1635.12 3325.39 1631.29 3286.67 1649.49Z" fill="white"/>
<path d="M3930.14 2647.93C3905.7 2658.14 3885.12 2660.7 3881.26 2653.04C3876.11 2646.65 3861.96 2641.54 3847.81 2641.54C3824.66 2641.54 3823.37 2651.76 3823.37 2794.77V2947.99H3855.53C3887.69 2947.99 3886.88 2962.49 3886.88 2858.45C3886.88 2747.36 3908.27 2692.62 3957.16 2692.62C4008.61 2692.62 4018.91 2719.43 4013.76 2838.18L4009.9 2947.99H4045.92H4080.65V2833.08C4080.65 2701.56 4066.5 2660.7 4012.47 2641.54C3991.89 2635.16 3967.58 2638.58 3966.29 2638.58C3965.01 2639.86 3952.01 2637.71 3930.14 2647.93Z" fill="white"/>
<path d="M3767.26 1642.67C3585.05 1690.45 3546.33 2013.52 3705.76 2138.65C3787.76 2202.36 3974.53 2202.36 4008.69 2138.65C4042.86 2077.23 4017.8 2040.82 3963.14 2070.4C3865.2 2122.73 3767.26 2081.78 3728.54 1972.57C3714.87 1938.44 3743.28 1934.89 3898.16 1934.89C3898.16 1934.89 4002.87 1943.86 4017.83 1910.96C4031.44 1881.02 4023.81 1813.31 4023.81 1813.31C3996.48 1647.22 3910.75 1603.99 3767.26 1642.67ZM3919.86 1790.55C3938.09 1840.61 3933.53 1842.88 3837.87 1842.88C3769.54 1842.88 3735.37 1833.78 3735.37 1813.31C3735.37 1720.02 3887.98 1704.1 3919.86 1790.55ZM3696.65 1877.01C3705.76 1895.21 3667.04 1783.73 3655.65 1790.55C3641.99 1799.66 3667.04 1915.69 3667.04 1890.66C3667.04 1833.78 3680.71 1829.23 3696.65 1877.01Z" fill="white"/>
<path d="M4269.13 1638.12C4225.85 1656.32 4209.13 1672.25 4202.29 1658.6C4193.18 1647.22 4168.13 1638.12 4143.08 1638.12C4102.08 1638.12 4099.8 1656.32 4099.8 1911.14V2184.16H4156.74C4213.68 2184.16 4213.68 2181.88 4213.68 2006.7C4213.68 1808.76 4250.13 1729.13 4336.68 1729.13C4427.78 1729.13 4446.01 1776.9 4436.89 1988.49L4430.06 2184.16H4493.84H4555.33V1979.39C4555.33 1745.05 4530.28 1672.25 4434.62 1638.12C4398.17 1626.74 4376.83 1620.88 4364.86 1620.88C4346.91 1620.88 4307.85 1619.92 4269.13 1638.12Z" fill="white"/>
<path d="M5648.61 1631.29C5575.73 1658.6 5534.73 1715.47 5534.73 1788.28C5534.73 1870.19 5584.84 1917.96 5698.72 1945.27C5769.33 1963.47 5796.66 2018.07 5757.94 2063.57C5737.44 2088.6 5701 2095.43 5632.67 2086.33C5541.56 2077.23 5534.73 2079.5 5534.73 2129.55C5534.73 2179.61 5543.84 2184.16 5655.45 2184.16C5823.99 2184.16 5876.38 2143.21 5876.38 2011.25C5876.38 1908.86 5876.38 1906.59 5762.5 1858.81C5682.78 1824.68 5648.61 1797.38 5648.61 1767.8C5648.61 1731.4 5662.28 1724.58 5748.83 1733.68C5830.83 1738.23 5853.6 1733.68 5862.71 1701.82C5867.27 1679.07 5864.99 1656.32 5855.88 1651.77C5826.27 1631.29 5680.5 1617.64 5648.61 1631.29Z" fill="white"/>
<path d="M1434.93 1911.14V2184.16H1498.7H1560.2L1553.37 2031.72C1548.81 1945.27 1555.65 1847.43 1569.31 1811.03C1592.09 1754.15 1603.48 1747.33 1674.08 1756.43C1747.14 1756.43 1765.09 1760.78 1765.09 1701.62C1765.09 1647.02 1744.69 1638.12 1687.75 1638.12C1651.31 1638.12 1588.58 1665.74 1588.58 1665.74H1540.72C1540.72 1665.74 1503.26 1638.12 1480.48 1638.12C1437.21 1638.12 1434.93 1656.32 1434.93 1911.14ZM1519.2 1779.18C1512.37 1797.38 1505.54 1790.55 1505.54 1765.53C1503.26 1740.5 1485.04 1833.78 1491.87 1842.88C1498.7 1849.71 1526.04 1763.25 1519.2 1779.18Z" fill="white"/>
<path d="M2696.76 1681.35C2564.65 1763.25 2535.04 2013.52 2644.37 2129.55C2701.31 2188.71 2840.25 2204.63 2888.08 2156.86C2908.58 2136.38 2915.41 2136.38 2915.41 2156.86C2915.41 2172.78 2940.47 2184.16 2972.36 2184.16H3029.3V1924.79C3029.3 1635.84 3031.57 1638.12 2863.03 1638.12C2808.36 1638.12 2735.48 1656.32 2696.76 1681.35ZM2915.41 1886.11C2915.41 2029.45 2881.25 2093.15 2803.81 2093.15C2683.09 2093.15 2653.48 1842.88 2765.09 1770.08C2778.75 1760.98 2817.47 1751.88 2853.92 1751.88C2913.14 1751.88 2915.41 1754.15 2915.41 1886.11Z" fill="white"/>
<path d="M1684.32 2544.96C1634.21 2585.91 1630.81 2630.09 1628.53 2709.72C1623.98 2882.63 1683.19 2978.19 1792.52 2980.46C1872.24 2980.46 1910.63 2960.65 1947.4 2887.18C1970.51 2841.02 1914.68 2811.12 1885.91 2850.78C1787.97 2963.64 1708.25 2861.96 1708.25 2741.57C1708.25 2568.66 1848.27 2558.74 1887.75 2637.67C1902.71 2667.57 1950.01 2655.97 1947.58 2625.7C1941.6 2550.94 1849.46 2502.68 1787.97 2502.68C1769.75 2502.68 1718.48 2515.38 1684.32 2544.96Z" fill="white"/>
<path d="M4206.85 2516.33C4174.96 2548.18 4190.91 2595.96 4231.9 2589.14C4252.4 2584.59 4270.62 2566.38 4270.62 2550.46C4270.62 2514.06 4229.63 2493.58 4206.85 2516.33Z" fill="white"/>
<path d="M5063.25 2539.08C5058.7 2552.73 5056.42 2655.12 5060.98 2766.6C5065.53 2928.14 5073.48 2984.57 5100.82 2984.57C5125.87 2984.57 5136.14 2944.06 5136.14 2878.08V2793.9H5222.69C5286.47 2800.73 5306.96 2793.9 5306.96 2766.6C5306.96 2739.3 5284.19 2730.2 5215.86 2730.2C5127.03 2730.2 5136.14 2730.2 5127.74 2655.61C5134.57 2585.08 5140.69 2582.31 5238.63 2582.31C5309.24 2582.31 5313.23 2561.83 5313.23 2539.08C5313.23 2500.4 5079.2 2500.4 5063.25 2539.08Z" fill="white"/>
<path d="M6318.43 2518.04C6311.6 2531.69 6306.46 2553.93 6312.45 2607.76C6319.23 2668.82 6286.36 2661.59 6282.53 2661.59C6162.86 2592.81 6013.04 2782.52 6117.81 2930.41C6147.42 2971.36 6170.2 2980.46 6259.03 2973.64L6366.08 2966.81V2741.57C6366.08 2591.41 6375.54 2510.63 6357.32 2506.08C6343.66 2501.53 6327.54 2504.39 6318.43 2518.04ZM6286.36 2809.83C6286.36 2903.11 6281.8 2912.21 6231.7 2912.21C6167.92 2912.21 6138.31 2848.5 6158.81 2762.05C6170.2 2723.37 6188.42 2707.44 6229.42 2707.44C6281.8 2707.44 6286.36 2716.54 6286.36 2809.83Z" fill="white"/>
<path d="M2072.68 2684.69C1974.74 2782.53 2043.07 2980.46 2170.62 2980.46C2250.33 2980.46 2300.44 2912.21 2300.44 2805.28C2300.44 2655.12 2170.62 2586.86 2072.68 2684.69ZM2220.72 2809.83C2220.72 2891.73 2216.17 2900.83 2163.78 2900.83C2118.23 2900.83 2104.56 2887.18 2100.01 2837.13C2088.62 2741.57 2111.4 2702.89 2168.34 2712C2213.89 2718.82 2220.72 2732.47 2220.72 2809.83Z" fill="white"/>
<path d="M2416.6 2661.94C2401.28 2691.74 2386.99 2721.1 2386.99 2809.83C2381.38 2980.46 2389.95 2972.61 2417.28 2972.61C2440.06 2972.61 2455.32 2980.46 2455.32 2837.13C2462.16 2716.55 2466.71 2707.45 2516.82 2707.45C2571.49 2707.45 2573.76 2714.27 2573.76 2843.96C2573.76 2950.89 2580.6 2980.46 2607.93 2980.46C2632.98 2980.46 2642.09 2953.16 2642.09 2871.26C2642.09 2746.12 2664.87 2700.62 2724.09 2712C2760.53 2718.82 2769.64 2743.85 2774.2 2850.78C2779.39 2972.61 2789.4 2969.09 2812.18 2969.09C2872.01 2972.61 2842.1 2781.21 2824.31 2682.42C2796.97 2634.64 2731.64 2628.18 2665.59 2664.58C2632.68 2682.72 2608.75 2694.49 2573.76 2661.94C2560.33 2649.44 2469.61 2632.04 2416.6 2661.94Z" fill="white"/>
<path d="M2957.11 2664.31C2941.78 2694.11 2927.5 2723.47 2927.5 2812.2C2921.88 2982.84 2930.45 2974.98 2957.78 2974.98C2980.56 2974.98 2995.83 2982.84 2995.83 2839.5C3002.66 2718.92 3007.22 2709.82 3057.32 2709.82C3111.99 2709.82 3114.27 2716.64 3114.27 2846.33C3114.27 2953.26 3121.1 2982.84 3148.43 2982.84C3173.49 2982.84 3182.6 2955.53 3182.6 2873.63C3182.6 2748.49 3205.37 2702.99 3264.59 2714.37C3301.04 2721.19 3310.15 2746.22 3314.7 2853.15C3319.89 2974.98 3329.91 2971.46 3352.68 2971.46C3412.52 2974.98 3382.6 2783.58 3364.81 2684.79C3337.48 2637.01 3272.14 2630.55 3206.09 2666.95C3173.18 2685.09 3149.25 2696.86 3114.27 2664.31C3100.83 2651.82 3010.11 2634.41 2957.11 2664.31Z" fill="white"/>
<path d="M3480.28 2650.57C3457.5 2673.32 3482.55 2916.76 3509.88 2950.89C3525.83 2969.09 3600.99 2965.2 3667.04 2960.65C3733.1 2956.09 3733.62 2790.65 3733.62 2775.7C3736.28 2913.73 3733.62 2760.75 3733.62 2775.7C3730.96 2637.67 3720.49 2643.65 3697.72 2643.65C3667.04 2640.66 3670.79 2643.65 3667.04 2775.7C3664 2882.98 3648.82 2900.83 3605.55 2907.66C3559.99 2914.49 3548.98 2913.76 3542.15 2793.17C3535.32 2674.87 3542.15 2634.68 3480.28 2650.57Z" fill="white"/>
<path d="M5843.78 2665.87C5819.34 2676.09 5798.75 2678.64 5794.9 2670.98C5789.75 2664.59 5775.6 2659.49 5761.45 2659.49C5738.29 2659.49 5737.01 2669.7 5737.01 2812.71V2965.94H5769.17C5801.33 2965.94 5800.52 2980.43 5800.52 2876.39C5800.52 2765.3 5821.91 2710.56 5870.79 2710.56C5922.25 2710.56 5932.54 2737.38 5927.4 2856.13L5923.54 2965.94H5959.56H5994.29V2851.02C5994.29 2719.5 5980.14 2678.64 5926.11 2659.49C5905.53 2653.1 5881.22 2656.52 5879.93 2656.52C5878.65 2657.8 5865.65 2655.66 5843.78 2665.87Z" fill="white"/>
<path d="M4190.91 2809.83C4190.91 2946.34 4197.74 2980.46 4225.07 2980.46C4252.4 2980.46 4259.24 2946.34 4259.24 2809.83C4259.24 2673.32 4252.4 2639.19 4225.07 2639.19C4197.74 2639.19 4190.91 2673.32 4190.91 2809.83Z" fill="white"/>
<path d="M4556.33 2667.57C4556.33 2674.4 4577.27 2736.35 4619.16 2799.16C4668.66 2873.39 4678.99 2885.88 4673.01 2927.75C4667.02 2963.64 4673.01 3002.51 4619.16 3035.41C4569.47 3035.41 4538.38 3054.65 4538.38 3068.3C4538.38 3084.23 4535.39 3094.22 4584.94 3094.22C4594.05 3094.22 4621.39 3094.22 4644.16 3094.22C4676.05 3094.22 4705.66 3053.27 4755.77 2928.14C4851.43 2702.89 4865.09 2639.19 4821.82 2639.19C4803.6 2639.19 4790.53 2644.69 4783.7 2676.54C4776.86 2706.12 4754.34 2768.98 4747.8 2781.21C4741.25 2793.44 4727.95 2822.13 4711.9 2814.11C4693.95 2805.14 4676 2775.23 4676 2775.23C4616.16 2652.62 4605.44 2639.19 4587.22 2639.19C4569 2639.19 4556.33 2663.02 4556.33 2667.57Z" fill="white"/>
<path d="M5393.91 2663.14C5371.14 2685.89 5396.19 2929.33 5423.52 2963.46C5439.47 2981.66 5514.63 2977.76 5580.68 2973.21C5646.73 2968.66 5647.26 2803.22 5647.26 2788.27C5649.91 2926.3 5647.26 2773.32 5647.26 2788.27C5644.6 2650.24 5634.13 2656.22 5611.36 2656.22C5580.68 2653.23 5584.43 2656.22 5580.68 2788.27C5577.64 2895.55 5562.46 2913.4 5519.18 2920.23C5473.63 2927.05 5462.62 2926.33 5455.79 2805.74C5448.96 2687.44 5455.79 2647.24 5393.91 2663.14Z" fill="white"/>
<path d="M5234.64 1566.87C5234.64 1619.2 5225.53 1635.13 5189.09 1635.13C5159.48 1635.13 5127.74 1651.11 5127.74 1680.69C5127.74 1710.27 5172.92 1722.56 5202.53 1722.56C5243.53 1722.56 5234.64 1742.06 5234.64 1910.42C5234.64 2147.04 5252.87 2181.17 5382.69 2181.17C5473.8 2181.17 5510.68 2174.06 5510.68 2126.28C5510.68 2085.33 5460.13 2076.16 5410.02 2078.43C5346.25 2078.43 5359.92 2078.79 5353.08 1901.32L5346.25 1726.13H5416.86C5473.8 1726.13 5487.59 1701.11 5480.76 1669.26C5476.2 1646.5 5448.75 1644.23 5410.02 1639.68C5362.19 1632.85 5348.53 1619.2 5348.53 1578.25C5348.53 1530.47 5334.98 1507.24 5280.32 1507.24C5268.93 1507.24 5234.64 1528.2 5234.64 1566.87ZM5257.42 1612.38C5223.26 1651.05 5246.03 1719.31 5266.53 1669.26C5277.92 1637.4 5287.03 1635.13 5314.36 1657.88C5339.42 1678.36 5280.2 1589.62 5257.42 1612.38Z" fill="white"/>
<ellipse cx="4918.32" cy="628.016" rx="95.7339" ry="95.6976" fill="white"/>
<ellipse cx="5352.12" cy="517.366" rx="128.642" ry="128.594" fill="white"/>
<ellipse cx="5352.12" cy="517.366" rx="128.642" ry="128.594" fill="white"/>
</svg>
