<svg width="798" height="674" viewBox="0 0 798 674" fill="none" xmlns="http://www.w3.org/2000/svg">
<path fill-rule="evenodd" clip-rule="evenodd" d="M397.391 178.382C357.832 151.109 303.655 161.068 276.382 200.627C249.109 240.185 259.069 294.363 298.627 321.636L397.391 178.382Z" fill="#C4C4C4"/>
<circle cx="348.137" cy="250.704" r="54.5" transform="rotate(-55.4165 348.137 250.704)" fill="#FF9A6F"/>
<rect x="298.627" y="321.636" width="32" height="118" transform="rotate(-55.4165 298.627 321.636)" fill="#C4C4C4"/>
<rect x="378.66" y="205.551" width="33" height="118" transform="rotate(-55.4165 378.66 205.551)" fill="#C4C4C4"/>
<path fill-rule="evenodd" clip-rule="evenodd" d="M395.776 388.614C435.335 415.886 489.512 405.927 516.785 366.368C544.058 326.81 534.098 272.632 494.54 245.359L395.776 388.614Z" fill="#C4C4C4"/>
<circle cx="445.03" cy="316.291" r="54.5" transform="rotate(124.584 445.03 316.291)" fill="#FF9A6F"/>
<rect x="494.54" y="245.359" width="32" height="118" transform="rotate(124.584 494.54 245.359)" fill="#C4C4C4"/>
<rect x="413.94" y="362.268" width="32" height="118" transform="rotate(124.584 413.94 362.268)" fill="#C4C4C4"/>
<path fill-rule="evenodd" clip-rule="evenodd" d="M170.391 49.3816C130.832 22.1087 76.6546 32.0683 49.3818 71.6268C22.109 111.185 32.0685 165.363 71.6271 192.636L170.391 49.3816Z" fill="#C4C4C4"/>
<circle cx="121.137" cy="121.704" r="54.5" transform="rotate(-55.4165 121.137 121.704)" fill="#FF9A6F"/>
<rect x="71.627" y="192.636" width="32" height="118" transform="rotate(-55.4165 71.627 192.636)" fill="#C4C4C4"/>
<rect x="151.66" y="76.5508" width="33" height="118" transform="rotate(-55.4165 151.66 76.5508)" fill="#C4C4C4"/>
<path fill-rule="evenodd" clip-rule="evenodd" d="M168.776 259.614C208.335 286.886 262.512 276.927 289.785 237.368C317.058 197.81 307.098 143.632 267.54 116.359L168.776 259.614Z" fill="#C4C4C4"/>
<circle cx="218.03" cy="187.291" r="54.5" transform="rotate(124.584 218.03 187.291)" fill="#FF9A6F"/>
<rect x="267.54" y="116.359" width="32" height="118" transform="rotate(124.584 267.54 116.359)" fill="#C4C4C4"/>
<rect x="186.94" y="233.268" width="32" height="118" transform="rotate(124.584 186.94 233.268)" fill="#C4C4C4"/>
<path fill-rule="evenodd" clip-rule="evenodd" d="M735.32 294.547C769.853 261.138 770.764 206.061 737.355 171.528C703.946 136.995 648.868 136.083 614.335 169.492L735.32 294.547Z" fill="#C4C4C4"/>
<circle cx="674.12" cy="232.008" r="54.5" transform="rotate(45.9479 674.12 232.008)" fill="#FF9A6F"/>
<rect x="614.335" y="169.492" width="32" height="118" transform="rotate(45.9479 614.335 169.492)" fill="#C4C4C4"/>
<rect x="712.374" y="270.83" width="33" height="118" transform="rotate(45.9479 712.374 270.83)" fill="#C4C4C4"/>
<path fill-rule="evenodd" clip-rule="evenodd" d="M529.528 251.539C494.995 284.948 494.083 340.025 527.492 374.558C560.901 409.091 615.979 410.003 650.512 376.594L529.528 251.539Z" fill="#C4C4C4"/>
<circle cx="590.727" cy="314.078" r="54.5" transform="rotate(-134.052 590.727 314.078)" fill="#FF9A6F"/>
<rect x="650.512" y="376.594" width="32" height="118" transform="rotate(-134.052 650.512 376.594)" fill="#C4C4C4"/>
<rect x="551.778" y="274.537" width="32" height="118" transform="rotate(-134.052 551.778 274.537)" fill="#C4C4C4"/>
<path fill-rule="evenodd" clip-rule="evenodd" d="M601 400C601 351.951 562.049 313 514 313C465.951 313 427 351.951 427 400H601Z" fill="#C4C4C4"/>
<circle cx="513.5" cy="400.5" r="54.5" fill="#FF9A6F"/>
<rect x="427" y="400" width="32" height="118" fill="#C4C4C4"/>
<rect x="568" y="400" width="33" height="118" fill="#C4C4C4"/>
<rect x="397" y="438" width="233.422" height="235.43" rx="40" fill="#FFC977"/>
<path d="M549.376 509.857C554.106 518.973 550.975 531.757 539.983 548.208C537.116 552.5 534.393 556.469 531.817 560.116C529.24 563.763 527.06 567.046 525.278 569.965C523.553 572.756 522.816 574.905 523.066 576.415C523.727 578.73 523.359 581.008 521.961 583.247C520.562 585.486 518.771 587.393 516.587 588.967C514.367 590.448 512.006 591.555 509.503 592.287C507 593.02 504.976 593.037 503.429 592.339C498.688 587.717 497.638 580.417 500.279 570.438C501.496 566.022 503.134 561.447 505.192 556.713C507.216 551.885 509.198 547.233 511.141 542.757C513.141 538.152 514.838 533.875 516.232 529.927C517.788 525.276 518.327 521.33 517.85 518.089L517.429 518.249C516.987 519.057 516.597 520.006 516.261 521.096C515.982 522.056 515.056 523.422 513.48 525.194C511.905 526.966 510.446 528.48 509.104 529.736C507.855 530.956 506.653 532.159 505.497 533.344C504.4 534.401 503.699 535.093 503.396 535.422C503.186 535.715 502.929 536.026 502.626 536.354C502.416 536.648 502.066 536.994 501.576 537.393L499.649 539.084C492.254 544.125 486.03 545.195 480.978 542.295C479.196 541.258 477.295 539.625 475.276 537.395C472.833 534.042 472.199 529.257 473.376 523.039C474.333 517.652 476.351 513.094 479.431 509.364C482.475 505.54 486.661 501.765 491.988 498.041C497.373 494.187 502.965 491.164 508.764 488.971C514.563 486.778 520.231 485.651 525.767 485.589C531.303 485.527 536.029 487 539.947 490.009C541.554 491.433 542.56 493.244 542.964 495.443C543.368 497.643 543.613 499.421 543.698 500.779C543.842 502.007 544.091 503.089 544.444 504.024C544.892 504.924 545.673 505.859 546.787 506.827C547.866 507.702 548.729 508.712 549.376 509.857ZM525.33 608.273C524.851 612.944 523.357 616.77 520.849 619.749C518.376 622.823 515.643 624.925 512.65 626.057C509.786 627.247 507.053 627.371 504.452 626.431C501.851 625.49 500.119 623.311 499.255 619.896C497.709 615.242 498.816 611.242 502.576 607.896C507.339 603.529 512.624 601.531 518.43 601.901C523.792 602.226 526.092 604.35 525.33 608.273Z" fill="black"/>
</svg>
