<svg width="798" height="732" viewBox="0 0 798 732" fill="none" xmlns="http://www.w3.org/2000/svg">
<path fill-rule="evenodd" clip-rule="evenodd" d="M397.391 178.382C357.832 151.109 303.655 161.068 276.382 200.627C249.109 240.185 259.069 294.363 298.627 321.636L397.391 178.382Z" fill="#C4C4C4"/>
<circle cx="348.137" cy="250.704" r="54.5" transform="rotate(-55.4165 348.137 250.704)" fill="#FF9A6F"/>
<rect x="298.627" y="321.636" width="32" height="118" transform="rotate(-55.4165 298.627 321.636)" fill="#C4C4C4"/>
<rect x="378.66" y="205.551" width="33" height="118" transform="rotate(-55.4165 378.66 205.551)" fill="#C4C4C4"/>
<path fill-rule="evenodd" clip-rule="evenodd" d="M395.776 388.614C435.335 415.886 489.512 405.927 516.785 366.368C544.058 326.81 534.098 272.632 494.54 245.359L395.776 388.614Z" fill="#C4C4C4"/>
<circle cx="445.03" cy="316.291" r="54.5" transform="rotate(124.584 445.03 316.291)" fill="#FF9A6F"/>
<rect x="494.54" y="245.359" width="32" height="118" transform="rotate(124.584 494.54 245.359)" fill="#C4C4C4"/>
<rect x="413.94" y="362.268" width="32" height="118" transform="rotate(124.584 413.94 362.268)" fill="#C4C4C4"/>
<path fill-rule="evenodd" clip-rule="evenodd" d="M170.391 49.3816C130.832 22.1087 76.6546 32.0683 49.3818 71.6268C22.109 111.185 32.0685 165.363 71.6271 192.636L170.391 49.3816Z" fill="#C4C4C4"/>
<circle cx="121.137" cy="121.704" r="54.5" transform="rotate(-55.4165 121.137 121.704)" fill="#FF9A6F"/>
<rect x="71.627" y="192.636" width="32" height="118" transform="rotate(-55.4165 71.627 192.636)" fill="#C4C4C4"/>
<rect x="151.66" y="76.5508" width="33" height="118" transform="rotate(-55.4165 151.66 76.5508)" fill="#C4C4C4"/>
<path fill-rule="evenodd" clip-rule="evenodd" d="M168.776 259.614C208.335 286.886 262.512 276.927 289.785 237.368C317.058 197.81 307.098 143.632 267.54 116.359L168.776 259.614Z" fill="#C4C4C4"/>
<circle cx="218.03" cy="187.291" r="54.5" transform="rotate(124.584 218.03 187.291)" fill="#FF9A6F"/>
<rect x="267.54" y="116.359" width="32" height="118" transform="rotate(124.584 267.54 116.359)" fill="#C4C4C4"/>
<rect x="186.94" y="233.268" width="32" height="118" transform="rotate(124.584 186.94 233.268)" fill="#C4C4C4"/>
<path fill-rule="evenodd" clip-rule="evenodd" d="M735.32 294.547C769.853 261.138 770.764 206.061 737.355 171.528C703.946 136.995 648.868 136.083 614.335 169.492L735.32 294.547Z" fill="#C4C4C4"/>
<circle cx="674.12" cy="232.008" r="54.5" transform="rotate(45.9479 674.12 232.008)" fill="#FF9A6F"/>
<rect x="614.335" y="169.492" width="32" height="118" transform="rotate(45.9479 614.335 169.492)" fill="#C4C4C4"/>
<rect x="712.374" y="270.83" width="33" height="118" transform="rotate(45.9479 712.374 270.83)" fill="#C4C4C4"/>
<path fill-rule="evenodd" clip-rule="evenodd" d="M529.528 251.539C494.995 284.948 494.083 340.025 527.492 374.558C560.901 409.091 615.979 410.003 650.512 376.594L529.528 251.539Z" fill="#C4C4C4"/>
<circle cx="590.727" cy="314.078" r="54.5" transform="rotate(-134.052 590.727 314.078)" fill="#FF9A6F"/>
<rect x="650.512" y="376.594" width="32" height="118" transform="rotate(-134.052 650.512 376.594)" fill="#C4C4C4"/>
<rect x="551.778" y="274.537" width="32" height="118" transform="rotate(-134.052 551.778 274.537)" fill="#C4C4C4"/>
<path fill-rule="evenodd" clip-rule="evenodd" d="M601 400C601 351.951 562.049 313 514 313C465.951 313 427 351.951 427 400H601Z" fill="#C4C4C4"/>
<circle cx="513.5" cy="400.5" r="54.5" fill="#FF9A6F"/>
<rect x="427" y="400" width="32" height="55" fill="#C4C4C4"/>
<rect x="568" y="400" width="33" height="118" fill="#C4C4C4"/>
<rect x="397" y="496" width="233.422" height="235.43" rx="40" fill="#FFC977"/>
<path d="M549.376 567.857C554.106 576.973 550.975 589.757 539.983 606.208C537.116 610.5 534.393 614.469 531.817 618.116C529.24 621.763 527.06 625.046 525.278 627.965C523.553 630.756 522.816 632.905 523.066 634.415C523.727 636.73 523.359 639.008 521.961 641.247C520.562 643.486 518.771 645.393 516.587 646.967C514.367 648.448 512.006 649.555 509.503 650.287C507 651.02 504.976 651.037 503.429 650.339C498.688 645.717 497.638 638.417 500.279 628.438C501.496 624.022 503.134 619.447 505.192 614.713C507.216 609.885 509.198 605.233 511.141 600.757C513.141 596.152 514.838 591.875 516.232 587.927C517.788 583.276 518.327 579.33 517.85 576.089L517.429 576.249C516.987 577.057 516.597 578.006 516.261 579.096C515.982 580.056 515.056 581.422 513.48 583.194C511.905 584.966 510.446 586.48 509.104 587.736C507.855 588.956 506.653 590.159 505.497 591.344C504.4 592.401 503.699 593.093 503.396 593.422C503.186 593.715 502.929 594.026 502.626 594.354C502.416 594.648 502.066 594.994 501.576 595.393L499.649 597.084C492.254 602.125 486.03 603.195 480.978 600.295C479.196 599.258 477.295 597.625 475.276 595.395C472.833 592.042 472.199 587.257 473.376 581.039C474.333 575.652 476.351 571.094 479.431 567.364C482.475 563.54 486.661 559.765 491.988 556.041C497.373 552.187 502.965 549.164 508.764 546.971C514.563 544.778 520.231 543.651 525.767 543.589C531.303 543.527 536.029 545 539.947 548.009C541.554 549.433 542.56 551.244 542.964 553.443C543.368 555.643 543.613 557.421 543.698 558.779C543.842 560.007 544.091 561.089 544.444 562.024C544.892 562.924 545.673 563.859 546.787 564.827C547.866 565.702 548.729 566.712 549.376 567.857ZM525.33 666.273C524.851 670.944 523.357 674.77 520.849 677.749C518.376 680.823 515.643 682.925 512.65 684.057C509.786 685.247 507.053 685.371 504.452 684.431C501.851 683.49 500.119 681.311 499.255 677.896C497.709 673.242 498.816 669.242 502.576 665.896C507.339 661.529 512.624 659.531 518.43 659.901C523.792 660.226 526.092 662.35 525.33 666.273Z" fill="black"/>
</svg>
